<svg version="1.1" xmlns="http://www.w3.org/2000/svg" xmlns:xlink="http://www.w3.org/1999/xlink" x="0px" y="0px"
	 viewBox="120 120 530 530" xml:space="preserve">
<style type="text/css">
	.tritonobjectstorage0{fill:#646867;}
</style>
<g>
	<path class="tritonobjectstorage0" d="M211.5,590.3c0,8.7-2.2,15.6-6.5,20.6c-4.4,5.1-10.4,7.6-18,7.6c-7.6,0-13.6-2.5-18-7.6
		c-4.3-5.1-6.5-12-6.5-20.7c0-8.7,2.2-15.6,6.6-20.6c4.4-5,10.4-7.5,18-7.5c7.6,0,13.6,2.5,18,7.6
		C209.3,574.7,211.5,581.6,211.5,590.3z M166.6,590.3c0,7.9,1.7,13.9,5.2,18.2c3.5,4.3,8.5,6.4,15.1,6.4c6.6,0,11.6-2.1,15.1-6.4
		s5.2-10.3,5.2-18.3c0-7.9-1.7-14-5.2-18.2s-8.5-6.3-15.1-6.3c-6.5,0-11.6,2.1-15.1,6.4C168.4,576.4,166.6,582.5,166.6,590.3z"/>
</g>
<g>
	<path class="tritonobjectstorage0" d="M238.7,576.2c5.7,0,10,1.8,12.9,5.4c2.9,3.6,4.3,8.8,4.3,15.7c0,6.8-1.5,12-4.6,15.7c-3,3.7-7.3,5.5-12.8,5.5
		c-2.9,0-5.5-0.6-7.8-1.8c-2.3-1.2-4.2-2.9-5.5-5.1h-0.3l-1.1,6.2h-2.3v-58.4h3.7v14.7c0,2.2-0.1,4.2-0.1,6.1l-0.1,3.2h0.3
		c1.5-2.5,3.4-4.2,5.6-5.4C233,576.8,235.6,576.2,238.7,576.2z M238.6,579.6c-4.8,0-8.2,1.4-10.3,4.1c-2.1,2.8-3.1,7.3-3.1,13.6v0.6
		c0,6.1,1.1,10.6,3.2,13.2c2.2,2.7,5.5,4,10.1,4c4.4,0,7.8-1.6,10-4.7s3.4-7.5,3.4-13.3C252,585.5,247.5,579.6,238.6,579.6z"/>
</g>
<g>
	<path class="tritonobjectstorage0" d="M259.7,636.2c-2,0-3.7-0.3-5.1-0.9v-3.2c1.7,0.5,3.3,0.8,4.8,0.8c3.8,0,5.7-2.2,5.7-6.6V577h3.7v48.7
		c0,3.4-0.8,6-2.4,7.8C264.9,635.3,262.6,636.2,259.7,636.2z M264.6,565.7c0-2.4,0.8-3.6,2.4-3.6c0.8,0,1.4,0.3,1.8,0.9
		c0.4,0.6,0.7,1.5,0.7,2.7c0,1.1-0.2,2-0.7,2.7c-0.4,0.7-1,1-1.8,1C265.4,569.3,264.6,568.1,264.6,565.7z"/>
</g>
<g>
	<path class="tritonobjectstorage0" d="M296.9,618.5c-5.9,0-10.5-1.8-13.9-5.5c-3.3-3.7-5-8.8-5-15.3c0-6.5,1.6-11.7,4.8-15.6
		c3.2-3.9,7.5-5.9,12.9-5.9c4.8,0,8.6,1.7,11.4,5c2.8,3.4,4.2,7.9,4.2,13.7v3h-29.4c0,5.6,1.4,9.9,3.9,12.8c2.6,3,6.2,4.4,11,4.4
		c2.3,0,4.4-0.2,6.1-0.5c1.8-0.3,4-1,6.7-2.1v3.4c-2.3,1-4.4,1.7-6.4,2C301.4,618.4,299.2,618.5,296.9,618.5z M295.8,579.5
		c-3.9,0-7.1,1.3-9.5,3.9c-2.4,2.6-3.8,6.3-4.2,11.2h25.2c0-4.7-1-8.4-3.1-11.1C302.2,580.9,299.4,579.5,295.8,579.5z"/>
</g>
<g>
	<path class="tritonobjectstorage0" d="M337.2,618.5c-5.8,0-10.4-1.8-13.7-5.5c-3.3-3.7-5-8.8-5-15.4c0-6.8,1.7-12,5.1-15.8c3.4-3.8,8.1-5.6,14.1-5.6
		c3.5,0,6.9,0.6,10.1,1.8l-1,3.3c-3.5-1.2-6.6-1.8-9.2-1.8c-5,0-8.8,1.5-11.4,4.6c-2.6,3.1-3.9,7.5-3.9,13.3c0,5.5,1.3,9.8,3.9,12.9
		c2.6,3.1,6.2,4.7,10.8,4.7c3.7,0,7.1-0.7,10.3-2v3.5C344.9,617.9,341.4,618.5,337.2,618.5z"/>
</g>
<g>
	<path class="tritonobjectstorage0" d="M369.4,615.2c2.3,0,4.4-0.2,6.1-0.6v3c-1.8,0.6-3.9,0.9-6.2,0.9c-3.6,0-6.3-1-8-2.9c-1.7-1.9-2.6-5-2.6-9.1
		v-26.3h-6v-2.2l6-1.7l1.9-9.2h1.9v9.9h12v3.2h-12v25.8c0,3.1,0.5,5.4,1.6,6.9C365.4,614.5,367.1,615.2,369.4,615.2z"/>
</g>
<g>
	<path class="tritonobjectstorage0" d="M435.6,603.7c0,4.6-1.7,8.2-5,10.9c-3.4,2.7-7.8,4-13.4,4c-6.7,0-11.8-0.7-15.4-2.2v-3.8c4,1.7,9,2.5,15.1,2.5
		c4.5,0,8.1-1,10.7-3.1c2.6-2.1,4-4.8,4-8.1c0-2.1-0.4-3.8-1.3-5.2c-0.9-1.4-2.3-2.6-4.3-3.7s-4.9-2.3-8.7-3.6
		c-5.6-1.9-9.5-4-11.6-6.2c-2.1-2.2-3.2-5.2-3.2-8.9c0-4.1,1.6-7.4,4.8-10c3.2-2.6,7.3-3.9,12.4-3.9c5.1,0,10,1,14.5,2.9l-1.4,3.3
		c-4.6-1.9-8.9-2.8-13-2.8c-4,0-7.3,0.9-9.7,2.8c-2.4,1.9-3.6,4.4-3.6,7.6c0,2,0.4,3.7,1.1,5c0.7,1.3,1.9,2.5,3.6,3.5
		c1.7,1,4.5,2.3,8.6,3.7c4.3,1.5,7.5,2.9,9.6,4.3c2.2,1.4,3.7,3,4.7,4.7C435.1,599,435.6,601.2,435.6,603.7z"/>
</g>
<g>
	<path class="tritonobjectstorage0" d="M454.5,615.2c2.3,0,4.4-0.2,6.1-0.6v3c-1.8,0.6-3.9,0.9-6.2,0.9c-3.6,0-6.3-1-8-2.9c-1.7-1.9-2.6-5-2.6-9.1
		v-26.3h-6v-2.2l6-1.7l1.9-9.2h1.9v9.9h12v3.2h-12v25.8c0,3.1,0.5,5.4,1.7,6.9C450.4,614.5,452.1,615.2,454.5,615.2z"/>
</g>
<g>
	<path class="tritonobjectstorage0" d="M500.1,597.4c0,6.7-1.6,11.8-4.8,15.6c-3.2,3.7-7.7,5.6-13.4,5.6c-3.6,0-6.7-0.9-9.5-2.6
		c-2.7-1.7-4.8-4.2-6.3-7.4c-1.5-3.2-2.2-6.9-2.2-11.2c0-6.6,1.6-11.8,4.8-15.5s7.7-5.6,13.3-5.6c5.6,0,10,1.9,13.2,5.6
		S500.1,590.8,500.1,597.4z M467.9,597.4c0,5.6,1.2,10,3.7,13.1c2.5,3.1,5.9,4.7,10.4,4.7s8-1.6,10.4-4.7s3.7-7.5,3.7-13.1
		c0-5.6-1.2-10-3.7-13.1c-2.5-3.1-6-4.6-10.5-4.6s-8,1.5-10.4,4.6C469.1,587.3,467.9,591.7,467.9,597.4z"/>
</g>
<g>
	<path class="tritonobjectstorage0" d="M525.4,576.2c1.7,0,3.6,0.2,5.6,0.5l-0.7,3.6c-1.7-0.4-3.5-0.6-5.3-0.6c-3.5,0-6.3,1.5-8.6,4.4
		s-3.3,6.7-3.3,11.2v22.5h-3.7V577h3.1l0.4,7.3h0.3c1.7-3,3.5-5.1,5.4-6.3C520.4,576.8,522.7,576.2,525.4,576.2z"/>
</g>
<g>
	<path class="tritonobjectstorage0" d="M562,617.8l-0.9-6.5h-0.3c-2,2.6-4.2,4.5-6.3,5.6c-2.2,1.1-4.7,1.6-7.7,1.6c-4,0-7.1-1-9.3-3.1
		c-2.2-2-3.3-4.9-3.3-8.5c0-4,1.7-7.1,5-9.3s8.1-3.4,14.4-3.5l7.8-0.2v-2.7c0-3.9-0.8-6.8-2.4-8.8c-1.6-2-4.1-3-7.6-3
		c-3.8,0-7.7,1-11.7,3.1l-1.4-3.2c4.5-2.1,8.9-3.2,13.3-3.2c4.5,0,7.8,1.2,10,3.5c2.2,2.3,3.3,6,3.3,10.9v27.1H562z M547,615.2
		c4.3,0,7.8-1.2,10.3-3.7c2.5-2.5,3.8-5.9,3.8-10.4v-4l-7.1,0.3c-5.7,0.3-9.8,1.2-12.2,2.7s-3.7,3.9-3.7,7.1c0,2.5,0.8,4.5,2.3,5.9
		C542,614.5,544.2,615.2,547,615.2z"/>
</g>
<g>
	<path class="tritonobjectstorage0" d="M607.4,577v2.6l-8.4,0.5c2.2,2.8,3.4,5.9,3.4,9.2c0,3.9-1.3,7.1-3.9,9.5s-6.1,3.7-10.5,3.7
		c-1.9,0-3.1-0.1-3.9-0.2c-1.5,0.8-2.6,1.7-3.4,2.7c-0.8,1.1-1.2,2.2-1.2,3.3c0,1.3,0.5,2.2,1.5,2.8c1,0.6,2.6,0.9,5,0.9h7.1
		c4.4,0,7.8,0.9,10.2,2.7s3.5,4.4,3.5,7.9c0,4.3-1.7,7.6-5.2,10s-8.5,3.5-14.9,3.5c-5.1,0-9.1-1-11.9-3s-4.2-4.7-4.2-8.2
		c0-2.8,0.9-5.1,2.6-7c1.7-1.8,4.1-3.1,7.1-3.8c-1.2-0.5-2.2-1.3-2.9-2.2c-0.7-1-1.1-2.1-1.1-3.3c0-2.7,1.7-5.1,5.2-7.2
		c-2.4-1-4.2-2.5-5.5-4.6c-1.3-2.1-2-4.5-2-7.2c0-4.1,1.3-7.3,3.9-9.8c2.6-2.5,6.1-3.7,10.5-3.7c2.7,0,4.7,0.3,6.2,0.8H607.4z
		 M574.4,624.7c0,5.6,4.2,8.4,12.5,8.4c10.7,0,16-3.4,16-10.2c0-2.5-0.8-4.2-2.5-5.3c-1.7-1.1-4.4-1.6-8.1-1.6h-6.7
		C578.1,615.9,574.4,618.8,574.4,624.7z M577.5,589.7c0,3.1,1,5.6,2.9,7.3c1.9,1.7,4.5,2.6,7.7,2.6c3.4,0,6-0.9,7.8-2.6
		c1.8-1.7,2.7-4.2,2.7-7.5c0-3.5-0.9-6.1-2.8-7.8s-4.5-2.6-7.8-2.6c-3.2,0-5.8,0.9-7.7,2.8S577.5,586.4,577.5,589.7z"/>
</g>
<g>
	<path class="tritonobjectstorage0" d="M629.2,618.5c-5.9,0-10.5-1.8-13.9-5.5s-5-8.8-5-15.3c0-6.5,1.6-11.7,4.8-15.6c3.2-3.9,7.5-5.9,12.9-5.9
		c4.8,0,8.6,1.7,11.4,5c2.8,3.4,4.2,7.9,4.2,13.7v3h-29.4c0,5.6,1.4,9.9,3.9,12.8c2.6,3,6.2,4.4,11,4.4c2.3,0,4.4-0.2,6.1-0.5
		c1.8-0.3,4-1,6.7-2.1v3.4c-2.3,1-4.4,1.7-6.4,2S631.5,618.5,629.2,618.5z M628.1,579.5c-3.9,0-7.1,1.3-9.5,3.9
		c-2.4,2.6-3.8,6.3-4.2,11.2h25.2c0-4.7-1-8.4-3.1-11.1C634.5,580.9,631.7,579.5,628.1,579.5z"/>
</g>
<path class="tritonobjectstorage0" d="M315,158.4c8.8,0,17.2,3.4,23.4,9.6c13.1,13.1,12.8,34.6-0.7,48c-6.5,6.6-15.4,10.3-24.6,10.3
	c-18.1,0.1-32.9-14.6-33-32.7c0-0.2,0-0.4,0-0.6C280.4,173.9,295.9,158.5,315,158.4 M493.2,158.9c8.8,0,17.2,3.4,23.4,9.6
	c13.1,13.1,12.8,34.6-0.7,48c-6.5,6.6-15.4,10.3-24.6,10.3c-8.8,0-17.2-3.4-23.4-9.6c-13.1-13.1-12.8-34.6,0.7-48
	C475.1,162.6,484,158.9,493.2,158.9 M582.6,248.2c18.1-0.1,32.9,14.6,33,32.7c0,0.2,0,0.4,0,0.6c-0.3,19.1-15.8,34.5-34.9,34.6
	c-18.1,0.1-32.9-14.6-33-32.7c0-0.2,0-0.4,0-0.6C548,263.7,563.5,248.3,582.6,248.2 M225,248.4c18.1-0.1,32.9,14.6,33,32.7
	c0,0.2,0,0.4,0,0.6c-0.3,19.1-15.8,34.5-34.9,34.6c-18.1,0.1-32.9-14.5-33.1-32.6c0-0.2,0-0.5,0-0.7
	C190.3,263.9,205.8,248.5,225,248.4 M403.3,248.7c18.1-0.1,32.9,14.5,33,32.7c0,0.2,0,0.4,0,0.7c-0.3,19.1-15.8,34.5-34.9,34.6
	c-8.8,0-17.2-3.4-23.4-9.6c-13.1-13.1-12.8-34.6,0.7-48C385.2,252.4,394.1,248.7,403.3,248.7 M493.7,337.1
	c18.1-0.1,32.9,14.6,33,32.7c0,0.2,0,0.4,0,0.6c-0.3,19.1-15.8,34.5-34.9,34.6c-18.1,0.1-32.9-14.6-33-32.7c0-0.2,0-0.4,0-0.6
	C459,352.6,474.5,337.2,493.7,337.1 M314.3,337.8c18.1-0.1,32.9,14.5,33,32.7c0,0.2,0,0.4,0,0.7c-0.3,19.1-15.8,34.5-34.9,34.6
	c-8.7,0-17.1-3.4-23.3-9.6c-13.1-13.1-12.8-34.6,0.7-48C296.2,341.5,305,337.8,314.3,337.8 M315,139.2c-14.3,0-28.1,5.7-38.2,15.9
	c-20.9,20.9-21.2,54.6-0.7,75.2c9.8,9.8,23.1,15.3,37,15.2c14.3,0,28.1-5.7,38.2-15.9c21-20.9,21.2-54.6,0.7-75.2
	C342.1,144.7,328.8,139.2,315,139.2z M493.2,139.7c-14.3,0-28.1,5.7-38.2,15.9c-21,20.9-21.2,54.6-0.7,75.2
	c9.8,9.8,23.1,15.3,37,15.2c14.3,0,28.1-5.7,38.2-15.9c21-20.9,21.2-54.6,0.7-75.2C520.4,145.1,507.1,139.6,493.2,139.7L493.2,139.7
	z M582.6,229c-14.4,0-28.1,5.8-38.2,16c-21,21-21.2,54.6-0.7,75.2c9.8,9.8,23.1,15.3,37,15.2c14.3,0,28.1-5.7,38.2-15.9
	c21-21,21.2-54.6,0.7-75.2C609.8,234.5,596.5,229,582.6,229L582.6,229z M224.9,229.2c-14.3,0-28.1,5.7-38.2,15.9
	c-20.9,21-21.2,54.6-0.7,75.2c9.8,9.8,23.1,15.3,37,15.2c14.3,0,28.1-5.7,38.2-15.9c21-21,21.2-54.6,0.7-75.2
	C252.1,234.6,238.8,229.1,224.9,229.2L224.9,229.2z M403.4,229.5c-14.3,0-28.1,5.7-38.2,15.9c-21,20.9-21.2,54.6-0.7,75.2
	c9.8,9.8,23.1,15.3,37,15.2c14.3,0,28.1-5.7,38.2-15.8c21-21,21.2-54.6,0.7-75.2C430.6,235,417.2,229.5,403.4,229.5L403.4,229.5z
	 M493.7,317.9c-14.3,0-28.1,5.7-38.2,15.9c-21,21-21.2,54.6-0.7,75.2c9.8,9.8,23.1,15.3,37,15.2c14.3,0,28.1-5.7,38.2-15.9
	c21-21,21.2-54.6,0.7-75.2C520.9,323.4,507.5,317.9,493.7,317.9L493.7,317.9z M314.3,318.5c-14.4,0-28.1,5.8-38.2,16
	c-20.9,21-21.2,54.6-0.7,75.2c9.8,9.8,23.1,15.3,37,15.2c14.3,0,28.1-5.8,38.2-15.9c21-21,21.2-54.6,0.7-75.2
	C341.5,324,328.2,318.5,314.3,318.5L314.3,318.5z"/>
<path class="tritonobjectstorage0" d="M339.8,476.8V487c0,1.4-1.1,2.5-2.5,2.5h-21.7c-1.4,0-2.5,1.1-2.6,2.5v35.4c0,1.4-1.1,2.6-2.5,2.6c0,0,0,0,0,0
	h-10.1c-1.4,0-2.5-1.1-2.5-2.5l0,0v-38c0-8.4,6.8-15.1,15.1-15.2h24.3C338.7,474.3,339.8,475.4,339.8,476.8
	C339.8,476.8,339.8,476.8,339.8,476.8z M361.7,473.6h-10.1c-1.4,0-2.5,1.1-2.5,2.5v50.6c0,1.4,1.1,2.5,2.5,2.5h0h10.1
	c1.4,0,2.5-1.1,2.5-2.5l0,0v-50.6C364.3,474.8,363.1,473.6,361.7,473.6L361.7,473.6z M426.7,473.6h-50.6c-1.4,0-2.5,1.1-2.5,2.5
	v10.1c0,1.4,1.1,2.5,2.5,2.5h15.1c1.4,0,2.5,1.1,2.5,2.5v35.4c0,1.4,1.1,2.5,2.5,2.5h0h10.1c1.4,0,2.5-1.1,2.5-2.5l0,0v-35.4
	c0-1.4,1.1-2.5,2.5-2.5h15.3c1.4,0,2.5-1.1,2.5-2.5v-10.1C429.3,474.8,428.2,473.7,426.7,473.6L426.7,473.6z M287.9,473.6h-50.6
	c-1.4,0-2.5,1.1-2.5,2.5v10.1c0,1.4,1.1,2.5,2.5,2.5h15.1c1.4,0,2.5,1.1,2.5,2.5v35.4c0,1.4,1.1,2.5,2.5,2.5h0h10.1
	c1.4,0,2.5-1.1,2.5-2.5l0,0v-35.4c0-1.4,1.1-2.5,2.5-2.5H288c1.4,0,2.5-1.1,2.5-2.5v-10.1C290.5,474.8,289.4,473.6,287.9,473.6
	L287.9,473.6z M502,476.2v50.6c0,1.4,1.1,2.5,2.5,2.5h0h10.2c1.4,0,2.5-1.1,2.5-2.5v0v-35.4c0-1.4,1.1-2.5,2.5-2.5l0,0h20.5
	c1.4,0,2.5,1.1,2.5,2.5v0v35.4c0,1.4,1.1,2.5,2.5,2.5h0h10.1c1.4,0,2.5-1.1,2.5-2.5v0v-38c0-8.4-6.8-15.2-15.2-15.2h-38.2
	c-1.4,0-2.6,1.1-2.6,2.5C502,476.1,502,476.1,502,476.2z M464,487.5c-7.9,0-14.3,6.4-14.3,14.3s6.4,14.3,14.3,14.3
	s14.3-6.4,14.3-14.3l0,0C478.3,493.9,471.9,487.5,464,487.5 M464,471.4c16.8,0,30.4,13.6,30.4,30.4c0,16.8-13.6,30.4-30.4,30.4
	c-16.8,0-30.4-13.6-30.4-30.4v0C433.6,485,447.2,471.4,464,471.4z M564.2,475.8h1.3v-0.7h-3.4v0.7h1.3v3.9h0.8L564.2,475.8z
	 M568.6,479.6l1.3-3.5h0v0.9v2.6h0.8v-4.5h-1.1l-1.3,3.5l-1.2-3.5H566v4.5h0.8v-2.7v-0.8h0l1.3,3.5L568.6,479.6z"/>
</svg>
