<svg version="1.1" xmlns="http://www.w3.org/2000/svg" xmlns:xlink="http://www.w3.org/1999/xlink" x="0px" y="0px"
	 viewBox="0 0 980 980" xml:space="preserve">
<g transform="translate(17,980) scale(0.1,-0.1)" stroke="none">
<path d="M6430 9771 c-174 -24 -266 -43 -483 -100 -307 -81 -249 -78 -605 -21
-263 42 -405 54 -562 47 -124 -5 -157 -11 -415 -76 l-280 -71 -196 -97 -197
-96 -138 51 c-104 39 -231 73 -509 136 -532 121 -640 137 -956 136 -328 0
-553 -34 -824 -127 -783 -267 -1184 -839 -1255 -1788 -69 -940 233 -2338 806
-3732 256 -622 415 -903 636 -1121 189 -186 345 -259 538 -249 114 5 208 38
321 112 97 64 300 267 429 430 109 138 459 531 557 627 l58 56 130 -38 c72
-22 195 -56 275 -76 80 -20 151 -38 158 -40 25 -7 -156 -236 -229 -290 -63
-46 -116 -64 -356 -120 -304 -71 -426 -116 -511 -189 -58 -50 -82 -100 -82
-172 0 -155 135 -286 378 -367 179 -59 266 -71 522 -71 241 0 310 9 461 60
128 44 290 136 413 234 22 17 42 29 45 26 3 -4 9 -183 12 -398 5 -270 12 -425
23 -497 8 -58 24 -226 36 -375 31 -411 39 -500 60 -630 48 -299 145 -511 307
-669 199 -193 368 -263 659 -273 234 -8 436 22 680 102 362 119 574 283 711
551 89 174 140 362 202 749 87 541 104 666 156 1095 31 255 58 466 61 469 2 3
118 -5 257 -17 l252 -22 175 30 c550 95 810 199 1117 445 140 112 199 219 191
346 -7 95 -22 120 -91 147 -138 55 -277 52 -627 -12 -102 -19 -212 -37 -246
-41 -80 -9 -225 8 -360 42 l-109 28 -3 34 c-5 45 39 129 132 256 115 158 592
1098 719 1420 432 1093 630 2029 552 2617 -42 318 -160 553 -394 789 -299 300
-713 517 -1241 649 -316 80 -552 110 -895 115 -232 4 -265 2 -465 -24z m899
-300 c354 -48 612 -124 876 -258 358 -181 740 -496 839 -692 71 -139 101 -339
93 -621 -8 -291 -37 -486 -128 -860 -197 -814 -494 -1601 -819 -2170 -39 -69
-114 -208 -165 -310 -97 -193 -196 -342 -203 -306 -7 32 17 130 93 385 91 308
99 356 92 563 -4 131 -13 207 -46 387 -73 401 -75 476 -15 786 107 555 117
765 50 1025 -92 360 -258 682 -536 1041 -108 140 -331 374 -464 488 -178 151
-242 194 -485 325 -144 77 -285 166 -277 173 2 2 91 20 197 38 l194 34 275 -4
c204 -3 315 -9 429 -24z m-2159 -81 c966 -87 1726 -569 2230 -1416 80 -134
188 -350 249 -498 l41 -99 -92 7 c-109 8 -347 -8 -456 -30 -112 -22 -226 -61
-317 -107 -107 -55 -235 -181 -288 -284 -152 -293 -101 -715 160 -1343 182
-437 383 -795 872 -1555 59 -93 67 -77 -78 -158 -118 -65 -179 -119 -218 -194
-57 -107 -69 -180 -83 -497 -7 -171 -18 -289 -40 -429 -16 -105 -43 -329 -60
-497 -65 -659 -88 -832 -136 -1030 -88 -355 -242 -604 -469 -755 -105 -70
-191 -108 -350 -155 -238 -69 -449 -89 -595 -54 -342 80 -549 400 -629 971
-36 260 -41 413 -41 1252 0 953 -4 1008 -83 1170 -79 162 -302 292 -479 279
-32 -2 -58 -3 -58 -2 0 17 241 678 278 765 122 283 192 520 212 723 17 166 8
521 -19 693 -11 72 -36 210 -55 306 -63 307 -122 474 -220 621 -70 105 -137
165 -241 217 -117 57 -200 72 -370 65 -237 -9 -446 -66 -736 -200 l-159 -74 0
26 c1 117 47 436 91 622 160 680 519 1211 991 1465 69 37 140 61 335 117 147
41 281 73 328 77 120 12 355 12 485 1z m-2874 -25 c188 -20 353 -51 699 -130
154 -35 319 -72 367 -81 61 -12 85 -21 79 -28 -55 -71 -166 -228 -234 -332
-292 -448 -414 -806 -542 -1587 l-34 -208 11 -532 10 -532 -32 -310 c-18 -170
-35 -367 -38 -437 -12 -367 116 -666 455 -1054 l62 -72 -415 -473 c-432 -494
-495 -560 -578 -606 -43 -24 -62 -28 -127 -28 -67 0 -83 4 -155 39 -198 98
-401 386 -619 881 -424 962 -748 2075 -854 2942 -49 400 -54 877 -11 1158 38
256 107 485 192 645 162 305 455 539 833 665 90 30 147 41 310 60 110 13 214
26 230 28 73 10 257 6 391 -8z m5419 -2287 c4 -4 -15 -204 -42 -445 l-50 -438
39 -395 c52 -534 56 -660 30 -815 -28 -160 -93 -426 -103 -423 -5 2 -42 73
-84 158 -42 85 -99 196 -127 245 -270 475 -409 761 -517 1070 -68 193 -91 307
-98 485 -5 136 -3 165 15 237 24 93 51 142 112 197 71 64 189 108 339 126 78
10 476 8 486 -2z m-3757 -38 c190 -27 271 -94 350 -293 104 -258 167 -771 142
-1145 -20 -312 -58 -448 -243 -868 -47 -106 -107 -271 -157 -430 -45 -143 -86
-263 -91 -268 -10 -11 -182 8 -261 29 -403 105 -692 438 -795 917 -14 65 -18
126 -17 283 0 173 5 229 33 415 36 234 36 243 15 866 l-7 180 193 105 c190
102 196 105 399 160 221 61 300 70 439 49z m3992 -3395 c190 -81 214 -86 395
-92 171 -6 219 -1 529 48 104 16 191 28 193 25 13 -13 -111 -104 -232 -170
-399 -218 -975 -302 -1284 -188 l-46 18 -3 78 c-6 152 35 223 173 301 97 55
99 55 275 -20z m-3510 -3 c38 -19 65 -41 85 -70 28 -41 30 -49 30 -140 -1
-113 -21 -176 -83 -257 -99 -130 -316 -258 -538 -316 -79 -21 -111 -24 -279
-23 -157 0 -207 4 -290 22 -131 28 -277 74 -277 87 1 6 76 27 169 48 255 58
410 104 499 147 79 38 87 46 313 288 l232 250 42 -5 c23 -3 67 -17 97 -31z"/>
<path d="M7100 6872 c-118 -40 -161 -73 -172 -135 -5 -23 2 -34 41 -69 49 -43
126 -82 184 -93 30 -6 46 -1 109 37 76 45 133 97 157 142 13 24 13 29 -6 54
-54 73 -197 102 -313 64z"/>
<path d="M3696 6780 c-59 -33 -70 -50 -60 -93 26 -125 144 -216 289 -224 62
-4 76 -1 124 24 75 38 111 86 118 154 l5 54 -53 32 c-74 44 -127 61 -228 73
-120 14 -139 12 -195 -20z"/>
</g>
</svg>
