<svg version="1.0" xmlns="http://www.w3.org/2000/svg" viewBox="0 0 1346 1000">
  <g transform="translate(0,1000) scale(0.1,-0.1)" stroke="none">
    <path d="M6578 9985 c-104 -17 -250 -64 -329 -106 -71 -38 -160 -110 -210
    -169 -43 -51 -4751 -8151 -4810 -8276 -145 -306 -143 -728 5 -1022 104 -207
    271 -335 497 -382 93 -20 166 -20 4999 -20 4825 0 4907 0 4999 19 344 72 561
    349 603 773 21 211 -18 459 -100 630 -22 46 -1109 1919 -2415 4163 -2240 3849
    -2378 4084 -2443 4151 -180 184 -515 285 -796 239z m357 -2595 c170 -39 292
    -108 403 -224 154 -163 215 -384 191 -700 -10 -135 -23 -233 -64 -476 -21
    -125 -335 -2439 -335 -2469 0 -8 -118 -11 -410 -11 l-409 0 -6 33 c-3 17 -72
    547 -155 1177 -82 630 -165 1244 -185 1365 -65 405 -69 632 -14 812 119 388
    538 598 984 493z m-16 -4416 c253 -58 468 -225 576 -449 63 -130 79 -197 79
    -340 0 -94 -5 -137 -22 -198 -93 -327 -373 -561 -726 -607 -203 -27 -442 33
    -609 154 -321 231 -434 627 -277 972 64 142 196 286 337 369 88 51 230 101
    331 114 83 12 226 5 311 -15z"/>
  </g>
</svg>
