<svg version="1.1" xmlns="http://www.w3.org/2000/svg" xmlns:xlink="http://www.w3.org/1999/xlink" x="0px" y="0px"
	 viewBox="0 2 40 40" xml:space="preserve">
<style type="text/css">
	.icon-api-0{fill:none;stroke-miterlimit:10;}
</style>
<g>
	<path class="icon-api-0" d="M32.4,37.2H7.6c-1.4,0-2.5-1.1-2.5-2.5v-15c0-1.4,1.1-2.5,2.5-2.5h24.7c1.4,0,2.5,1.1,2.5,2.5v15
		C34.9,36.1,33.7,37.2,32.4,37.2z"/>
	<path class="icon-api-0" d="M35,12.7H5c-0.8,0-1.4-0.6-1.4-1.4v-3c0-0.8,0.6-1.4,1.4-1.4H35c0.8,0,1.4,0.6,1.4,1.4v3
		C36.4,12,35.7,12.7,35,12.7z"/>
	<circle class="icon-api-0" cx="20" cy="29.1" r="3.4"/>
</g>
</svg>
