<svg version="1.1" xmlns="http://www.w3.org/2000/svg" xmlns:xlink="http://www.w3.org/1999/xlink" x="0px" y="0px"
	 viewBox="0 0 24 24" xml:space="preserve">
<g>
	<polygon fill="none" stroke-miterlimit="10" points="12,19.9 1,15.4 1,18.5 12,23 23,18.5 23,15.4 		"/>
	<polygon fill="none" stroke-miterlimit="10" points="12,14.9 1,10.4 1,13.5 12,18 23,13.5 23,10.4 		"/>
	<path fill="none" stroke-miterlimit="10" d="M12,1L1,5.5v3.1l11,4.5l11-4.5V5.5L12,1z"/>
	<g>
		<polygon stroke="none" points="16.3,4.2 19.7,5.6 16.3,7 12.9,5.6 			"/>
	</g>
	<g>
		<path stroke="none" d="M5.3,6.3c-0.9-0.4-0.9-1,0-1.4s2.5-0.4,3.4,0c0.9,0.4,0.9,1,0,1.4C7.7,6.6,6.2,6.6,5.3,6.3z"/>
	</g>
	<g>
		<polygon stroke="none" points="12.1,4.3 11,4.9 10.4,4.1 8.6,3.9 10.2,3.5 10.2,2.7 11.7,3.1 13.5,2.9 12.9,3.6 14,4.3 			"/>
	</g>
	<g>
		<polygon stroke="none" points="7.9,7.3 13.2,6.7 11.8,8.9 			"/>
	</g>
</g>
</svg>
