<svg version="1.1" xmlns="http://www.w3.org/2000/svg" xmlns:xlink="http://www.w3.org/1999/xlink" x="0px" y="0px"
	 viewBox="0 0 35 35" style="enable-background:new 0 0 35 35;" xml:space="preserve">
<style type="text/css">
	.icon-customer-management{fill:none;stroke-miterlimit:10;}
</style>
<g>
	<path class="icon-customer-management" d="M14.3,12.9c-1.5,1.9-2.8,3.7-4.2,5.4c0.3,0.8,0.8,1.5,0.9,2.3c0.2,1.6,0.1,3.3,0,5c0,0.1-0.4,0.4-0.6,0.4
		c-0.9,0-1.8,0-2.8,0c-0.4,0-0.7-0.2-0.7-0.7c0-1.4-0.1-2.9,0-4.3c0-0.6,0.3-1.3,0.6-1.8c0.7-1.4,1.4-2.7,2.4-3.8
		c1.1-1.3,2-2.6,3.1-3.9c0.6-0.7,2-1.1,2.8-0.6c1.1,0.6,2.1,0.7,3.2,0c0.8-0.5,2.2-0.2,2.7,0.5c1.5,1.9,3,3.8,4.4,5.8
		c0.6,0.9,1,2,1.4,3c0.7,1.7,0.2,3.5,0.3,5.3c0,0.2-0.3,0.6-0.6,0.6c-0.9,0.1-1.9,0.1-2.8,0c-0.2,0-0.6-0.4-0.6-0.6
		c-0.1-1.5-0.1-2.9,0-4.4c0.1-0.8,0.6-1.5,0.8-2.2c0.1-0.2,0.1-0.5,0-0.6c-1.3-1.7-2.6-3.4-4-5.2c0,0.5,0,0.8,0,1.1
		c0,4.9,0,9.8,0,14.7c0,0.4-0.1,1-0.3,1c-0.5,0.1-1.1,0.1-1.6,0c-0.1,0-0.3-0.5-0.3-0.8c0-1.9,0-3.8,0-5.7c0-0.1,0-0.2,0-0.3
		c0-0.7-0.4-1.1-0.9-1.1c-0.6,0-1,0.4-1,1.1c0,1.5,0,2.9,0,4.4c0,0.6,0,1.2,0,1.8c0,0.5-0.2,0.7-0.7,0.7c-1.4,0.1-1.5,0-1.5-1.4
		c0-4.9,0-9.8,0-14.7C14.3,13.5,14.3,13.3,14.3,12.9z M7.9,20.3c0.8,0,1.5,0,2.2,0c-0.1-1.2-0.6-1.8-1.5-1.7
		C8.3,18.6,7.9,19.5,7.9,20.3z M27.2,20.3c-0.2-0.5-0.2-0.9-0.4-1.3c-0.2-0.5-1.3-0.6-1.6-0.1c-0.2,0.4-0.3,0.9-0.5,1.3
		C25.6,20.3,26.3,20.3,27.2,20.3z"/>
	<path class="icon-customer-management" d="M15,8.6c0-1.4,1-2.5,2.4-2.5c1.4,0,2.5,1.1,2.5,2.4c0,1.4-1.1,2.5-2.5,2.5C16.1,11,15,9.9,15,8.6z"/>
</g>
</svg>
