<svg version="1.1" xmlns="http://www.w3.org/2000/svg" xmlns:xlink="http://www.w3.org/1999/xlink" x="0px" y="0px"
	 viewBox="0 0 40 40" xml:space="preserve">
<style type="text/css">
	.icon-mouse-st1{fill:none;stroke:#FFFFFF;stroke-miterlimit:10;}
	.icon-mouse-st2{fill:none;stroke:#FFFFFF;stroke-linecap:round;stroke-linejoin:round;stroke-miterlimit:10;}
</style>
<g>
	<g>
		<path class="icon-mouse-st1" d="M27.9,22.1c-2.8-2.1-8.5-1.8-13.7-0.3C11,15,7.4,19.8,8.1,24.4c0,0,0,0,0,0c-3.5,1.9-5.8,4.3-5.3,6.5
			c1.1,5,27.2,5,28.5,0C32.3,27,31.4,24.8,27.9,22.1z"/>
		<circle class="icon-mouse-st1" cx="8.8" cy="28.6" r="1.6"/>
		<path class="icon-mouse-st2" d="M37.3,5.3c-2.4,0.5-7.1,3.8-7.5,6.4c-0.9,5.8,6.1,6.4,5.6,10.3c-0.4,3.2-3.8,3.8-3.8,3.8"/>
	</g>
</g>
</svg>
