<svg version="1.1" xmlns="http://www.w3.org/2000/svg" xmlns:xlink="http://www.w3.org/1999/xlink" x="0px" y="0px"
	 viewBox="0 0 40 40" xml:space="preserve">
<style type="text/css">
 .icon-function-0{fill:none;stroke-width:1.2;stroke-linecap:round;stroke-linejoin:round;stroke-miterlimit:10;}
</style>
<g>
	<path class="icon-function-0" d="M14,9.3c-1.7,0.5-2.5,1.5-2.5,3.1v4.9c0,0.5,0,0.9-0.1,1.3s-0.2,0.8-0.4,1.1c-0.2,0.3-0.4,0.6-0.8,0.8
		C10,20.7,9.6,20.9,9,21v0.1c1,0.2,1.7,0.6,2,1.1c0.3,0.6,0.5,1.3,0.5,2.3v5.2c0,0.9,0.2,1.5,0.6,2c0.4,0.5,1.1,0.8,2.1,1.1v0.1"/>
	<path class="icon-function-0" d="M25.8,32.9L25.8,32.9c1-0.3,1.7-0.6,2.1-1.1c0.4-0.5,0.6-1.1,0.6-2v-5.2c0-1,0.2-1.7,0.5-2.3
		c0.3-0.6,1-1,2-1.1V21c-0.5-0.1-1-0.3-1.3-0.5c-0.3-0.2-0.6-0.5-0.8-0.8c-0.2-0.3-0.3-0.7-0.4-1.1s-0.1-0.9-0.1-1.3v-4.9
		c0-1.6-0.8-2.6-2.5-3.1"/>
</g>
</svg>
