<svg version="1.0" xmlns="http://www.w3.org/2000/svg" viewBox="0 0 256 256" xml:space="preserve">
  <g transform="translate(0,256) scale(0.1,-0.1)" fill="#3F8FCD" stroke="none">
    <path d="M1560 1970 l0 -50 130 0 130 0 0 -640 0 -640 -130 0 -130 0 0 -50 0
    -50 310 0 310 0 0 50 0 50 -130 0 -130 0 0 640 0 640 130 0 130 0 0 50 0 50
    -310 0 -310 0 0 -50z"/>
    <path d="M205 1730 c-11 -4 -31 -20 -45 -35 l-25 -27 -3 -376 c-2 -413 -3
    -409 57 -449 l34 -23 773 0 774 0 0 50 0 50 -768 2 -767 3 0 355 0 355 768 3
    767 2 0 50 0 50 -772 -1 c-425 0 -782 -4 -793 -9z"/>
    <path d="M1970 1691 l0 -51 178 -2 177 -3 0 -355 0 -355 -177 -3 -178 -2 0
    -50 0 -50 184 0 c174 0 185 1 217 23 60 40 59 36 57 449 l-3 378 -33 32 -32
    33 -195 3 -195 3 0 -50z"/>
  </g>
</svg>
