<svg version="1.1" xmlns="http://www.w3.org/2000/svg" xmlns:xlink="http://www.w3.org/1999/xlink" x="0px" y="0px"
	 viewBox="0 0 40 40" xml:space="preserve">
<style type="text/css">
	.icon-microservice-0{fill:none;stroke-miterlimit:10;}
</style>
<g>
	<path class="icon-microservice-0" d="M32.5,37.2H7.7c-1.4,0-2.5-1.1-2.5-2.5v-15c0-1.4,1.1-2.5,2.5-2.5h24.7c1.4,0,2.5,1.1,2.5,2.5v15
		C35,36.1,33.8,37.2,32.5,37.2z"/>
	<path class="icon-microservice-0" d="M35.1,12.7H5.1c-0.8,0-1.4-0.6-1.4-1.4v-3c0-0.8,0.6-1.4,1.4-1.4h29.9c0.8,0,1.4,0.6,1.4,1.4v3
		C36.5,12,35.8,12.7,35.1,12.7z"/>
	<path class="icon-microservice-0" d="M13,33.7h14.2c0.5,0,1.1-0.7,1.1-1.7V20.8c-4.8,0-6.3,5.1-11.5,5.2c-2,0.1-3.5-0.7-4.9-1.8l-0.1,0v7.6
		C11.9,32.9,12.5,33.7,13,33.7z"/>
</g>
</svg>
