<svg xmlns="http://www.w3.org/2000/svg" xmlns:xlink="http://www.w3.org/1999/xlink" version="1.1" x="0px" y="0px" viewBox="0 0 100 100" enable-background="new 0 0 100 100" xml:space="preserve"><path d="M93.356,57.338c0-4.504-3.651-8.156-8.154-8.156s-8.155,3.652-8.155,8.156l-0.016,0.082  C76.615,71.967,64.704,83.645,50.05,83.67c-14.933,0.025-27.058-12.061-27.084-26.992c-0.024-14.663,11.629-26.611,26.189-27.062  l0.026,15.893l29.834-22.805L49.104,0l0.023,13.275c-23.58,0.47-42.531,19.747-42.491,43.43C6.677,80.656,26.126,100.041,50.078,100  c23.646-0.041,42.84-18.996,43.286-42.527L93.356,57.338z"></path></svg>
