<svg xmlns="http://www.w3.org/2000/svg" viewBox="0 0 50 50">
<path d="M 21.8125 2 C 20.8635 2 20.03075 2.66175 19.84375 3.59375 L 19.40625 5.8125 C 16.30525 6.7125 13.47625 8.3395 11.15625 10.5625 L 9.03125 9.84375 C 8.13025 9.54175 7.13125 9.928 6.65625 10.75 L 3.5 16.25 C 3.026 17.074 3.19325 18.125 3.90625 18.75 L 5.59375 20.25 C 5.20275 21.838 5 23.425 5 25 C 5 26.572 5.20175 28.16 5.59375 29.75 L 3.90625 31.25 C 3.19325 31.876 3.026 32.926 3.5 33.75 L 6.65625 39.25 C 7.13025 40.073 8.12925 40.46325 9.03125 40.15625 L 11.15625 39.4375 C 13.47825 41.6625 16.30725 43.2875 19.40625 44.1875 L 19.84375 46.40625 C 20.03275 47.33525 20.8645 48 21.8125 48 L 28.1875 48 C 29.1375 48 29.96925 47.33825 30.15625 46.40625 L 30.59375 44.1875 C 33.69375 43.2885 36.52275 41.6625 38.84375 39.4375 L 40.96875 40.15625 C 41.87075 40.46225 42.8375 40.072 43.3125 39.25 L 46.5 33.75 C 46.975 32.927 46.80775 31.876 46.09375 31.25 L 44.40625 29.75 C 44.79825 28.162 45 26.574 45 25 C 45 23.425 44.79825 21.838 44.40625 20.25 L 46.09375 18.75 C 46.80675 18.123 46.975 17.073 46.5 16.25 L 43.34375 10.75 C 42.86775 9.925 41.86575 9.53875 40.96875 9.84375 L 38.84375 10.5625 C 36.52275 8.3385 33.69375 6.7125 30.59375 5.8125 L 30.15625 3.59375 C 29.96725 2.66175 29.1365 2 28.1875 2 L 21.8125 2 z M 16.5 18 C 16.939 18 17.33975 18.29875 17.46875 18.71875 L 20.96875 30.09375 C 20.99775 30.18875 21 30.30625 21 30.40625 L 21 31 C 21 31.553 20.552 32 20 32 C 19.448 32 19 31.553 19 31 L 19 30.53125 L 18.53125 29 L 14.46875 29 L 14 30.53125 L 14 31 C 14 31.553 13.552 32 13 32 C 12.448 32 12 31.553 12 31 L 12 30.40625 C 12 30.30625 12.00225 30.18975 12.03125 30.09375 L 15.53125 18.71875 C 15.66025 18.29875 16.061 18 16.5 18 z M 24 18 L 28 18 C 29.654 18 31 19.346 31 21 L 31 24 C 31 25.654 29.654 27 28 27 L 25 27 L 25 31 C 25 31.553 24.552 32 24 32 C 23.448 32 23 31.553 23 31 L 23 19 C 23 18.448 23.448 18 24 18 z M 34 18 L 36 18 C 36.553 18 37 18.448 37 19 C 37 19.552 36.553 20 36 20 L 36 30 C 36.553 30 37 30.447 37 31 C 37 31.553 36.553 32 36 32 L 34 32 C 33.447 32 33 31.553 33 31 C 33 30.447 33.447 30 34 30 L 34 20 C 33.447 20 33 19.552 33 19 C 33 18.448 33.447 18 34 18 z M 25 20 L 25 25 L 28 25 C 28.552 25 29 24.551 29 24 L 29 21 C 29 20.449 28.552 20 28 20 L 25 20 z M 16.5 22.40625 L 15.09375 27 L 17.90625 27 L 16.5 22.40625 z"/>
</svg>
