<svg xmlns="http://www.w3.org/2000/svg" xmlns:xlink="http://www.w3.org/1999/xlink" viewBox="0 0 365 50" version="1.1">
<g>
<path style="fill:#fff" d="M 15.6875 4 C 14.085938 4 12.707031 4.886719 11.90625 6.1875 L 6.8125 15.3125 L 11.1875 23 L 17.5 12 L 41.3125 12 L 38.09375 6.1875 C 37.292969 4.886719 35.914063 4 34.3125 4 Z M 18.59375 14 L 12.3125 25 L 17.40625 33.90625 L 18.59375 36 L 31.3125 36 L 37.6875 25 L 31.3125 14 Z M 33.6875 14 L 40 25 L 39.6875 25.5 L 27.90625 46 L 34.3125 46 C 35.914063 46 37.292969 45.113281 38.09375 43.8125 L 47.40625 27.3125 C 48.207031 25.914063 48.207031 24.113281 47.40625 22.8125 L 42.5 14 Z M 5.59375 17.40625 L 2.5 22.8125 C 1.699219 24.210938 1.699219 25.914063 2.5 27.3125 L 11.8125 43.8125 C 12.613281 45.210938 13.992188 46 15.59375 46 L 25.5 46 L 30.1875 38 L 17.5 38 L 15.8125 35 L 15.6875 34.8125 L 10 25 Z M 25 20 C 27.800781 20 30 22.199219 30 25 C 30 27.800781 27.800781 30 25 30 C 22.199219 30 20 27.800781 20 25 C 20 22.199219 22.199219 20 25 20 Z "/><g transform="translate(57,44) scale(0.01,-0.01)"
fill="#fff">
<path d="M1075 3294 c-271 -48 -500 -168 -700 -369 -257 -257 -375 -541 -375
-902 0 -353 129 -657 386 -910 228 -224 530 -354 859 -370 284 -14 560 58 766
198 84 56 230 198 285 275 97 136 170 334 195 530 12 97 9 370 -5 393 -5 8
-164 11 -597 11 l-589 0 0 -180 0 -180 416 0 415 0 -7 -47 c-17 -120 -73 -252
-143 -341 -95 -119 -270 -229 -436 -274 -116 -31 -356 -31 -470 0 -106 29
-265 109 -345 175 -139 113 -251 283 -306 462 -25 82 -28 104 -28 255 -1 131
3 179 18 234 80 295 287 531 558 636 210 81 467 81 665 -1 90 -38 179 -91 244
-148 l51 -44 124 124 c68 68 124 129 124 136 0 6 -34 39 -76 73 -187 150 -351
225 -578 265 -110 19 -341 18 -451 -1z"/>
<path d="M8060 2010 l0 -1220 190 0 190 0 0 1220 0 1220 -190 0 -190 0 0
-1220z"/>
<path d="M11835 3079 c-258 -33 -510 -160 -686 -345 -366 -385 -421 -1025
-126 -1477 347 -533 1086 -678 1639 -321 71 46 228 189 228 208 0 6 -45 56
-100 111 l-99 99 -68 -66 c-191 -183 -403 -265 -662 -255 -228 9 -394 76 -548
221 -122 115 -187 222 -239 392 -26 83 -28 101 -28 269 0 167 2 186 27 268 50
162 123 283 235 389 160 151 361 228 596 228 225 0 401 -68 549 -212 l69 -68
37 29 c20 16 68 62 106 101 l70 71 -71 68 c-241 231 -574 335 -929 290z"/>
<path d="M24783 3035 c-196 -44 -343 -188 -382 -373 -6 -29 -11 -116 -11 -192
l0 -140 -145 0 -145 0 0 -135 0 -135 145 0 145 0 0 -635 0 -635 145 0 145 0 0
635 0 635 200 0 200 0 0 135 0 135 -201 0 -202 0 6 128 c7 153 19 194 73 249
67 66 169 89 268 59 l46 -14 16 36 c59 139 85 214 78 221 -39 35 -272 51 -381
26z"/>
<path d="M13110 1915 l0 -1125 150 0 150 0 0 1125 0 1125 -150 0 -150 0 0
-1125z"/>
<path d="M18242 2588 l4 -453 -57 60 c-68 71 -140 117 -241 153 -66 23 -87 26
-218 26 -131 0 -152 -3 -218 -26 -100 -36 -173 -81 -254 -157 -82 -76 -124
-133 -171 -226 -123 -247 -125 -559 -5 -800 157 -312 465 -473 786 -410 122
25 233 84 320 171 l72 74 0 -105 0 -105 140 0 140 0 0 1125 0 1125 -151 0
-152 0 5 -452z m-363 -493 c175 -42 306 -178 356 -370 21 -79 21 -251 0 -328
-24 -91 -65 -166 -127 -233 -225 -241 -606 -180 -754 121 -159 324 -7 725 307
809 70 19 139 19 218 1z"/>
<path d="M19310 1916 l0 -1126 150 0 150 0 0 454 0 455 313 3 c308 4 313 4
392 31 399 133 585 560 404 927 -60 122 -180 241 -299 298 -159 76 -151 75
-657 79 l-453 4 0 -1125z m952 796 c78 -38 144 -106 185 -190 24 -50 28 -69
28 -152 0 -87 -3 -101 -32 -160 -35 -71 -96 -139 -158 -175 -80 -47 -139 -55
-417 -55 l-258 0 0 386 0 385 293 -3 293 -3 66 -33z"/>
<path d="M20980 1915 l0 -1125 150 0 150 0 0 1125 0 1125 -150 0 -150 0 0
-1125z"/>
<path d="M23290 2565 l0 -235 -135 0 -135 0 0 -135 0 -135 134 0 135 0 3 -462
c4 -497 5 -504 60 -612 49 -97 165 -180 286 -205 78 -16 257 -14 327 4 33 9
61 17 63 19 1 2 -19 59 -47 127 -44 112 -51 124 -73 122 -12 -2 -48 -6 -80 -9
-106 -12 -166 16 -211 100 -22 40 -22 49 -25 479 l-3 437 191 0 190 0 0 135 0
135 -190 0 -190 0 0 235 0 235 -150 0 -150 0 0 -235z"/>
<path d="M3295 2389 c-184 -36 -335 -118 -457 -247 -83 -88 -138 -180 -180
-302 -32 -93 -33 -99 -33 -265 0 -151 3 -179 23 -245 88 -280 299 -486 577
-561 113 -31 336 -32 447 -1 231 63 423 220 523 427 68 140 80 195 80 375 0
185 -12 238 -87 390 -45 92 -63 116 -142 195 -120 118 -219 176 -382 221 -71
19 -296 27 -369 13z m270 -341 c99 -25 205 -104 265 -197 146 -228 80 -560
-138 -700 -86 -55 -154 -73 -262 -69 -82 3 -105 8 -163 36 -306 143 -373 581
-126 817 119 113 267 153 424 113z"/>
<path d="M5108 2390 c-190 -32 -379 -140 -500 -286 -61 -74 -132 -214 -159
-319 -31 -114 -31 -317 0 -430 40 -147 100 -255 205 -363 103 -107 211 -173
363 -219 77 -23 105 -26 233 -27 168 -1 236 13 370 76 308 143 486 447 466
798 -26 457 -379 784 -841 779 -49 -1 -111 -5 -137 -9z m277 -345 c62 -17 159
-79 202 -128 238 -272 131 -711 -199 -818 -100 -32 -218 -25 -311 19 -124 57
-220 173 -261 311 -18 62 -21 203 -5 271 30 133 132 262 252 319 106 51 204
59 322 26z"/>
<path d="M6874 2385 c-140 -30 -261 -96 -372 -200 -165 -155 -253 -338 -268
-561 -29 -411 251 -787 648 -868 202 -42 412 8 542 128 l49 45 -5 -122 c-7
-141 -29 -223 -84 -304 -42 -61 -83 -94 -162 -131 -52 -25 -68 -27 -177 -27
-114 0 -123 2 -188 32 -80 38 -161 115 -207 196 -18 31 -33 57 -33 57 -16 -1
-313 -132 -315 -139 -6 -18 56 -128 111 -196 101 -126 260 -230 412 -270 33
-9 110 -19 170 -22 332 -17 602 127 729 389 25 51 55 131 68 178 22 84 22 91
25 933 l4 847 -176 0 -175 0 0 -66 0 -66 -45 40 c-135 119 -356 170 -551 127z
m323 -347 c179 -66 293 -249 293 -470 0 -203 -96 -371 -259 -451 -62 -30 -72
-32 -176 -32 -104 0 -114 2 -175 32 -124 61 -209 160 -251 292 -29 91 -29 230
0 322 80 254 337 392 568 307z"/>
<path d="M9220 2384 c-288 -61 -495 -260 -587 -561 -24 -79 -26 -104 -26 -248
-1 -146 2 -168 26 -248 43 -141 97 -235 192 -336 214 -228 562 -309 874 -205
140 47 284 148 375 263 26 34 47 63 45 65 -18 15 -280 186 -285 186 -3 0 -35
-31 -71 -70 -49 -53 -83 -79 -140 -107 -69 -34 -85 -38 -173 -41 -186 -8 -307
55 -402 209 l-16 26 541 223 c298 123 546 227 551 231 11 10 -46 155 -96 242
-145 251 -378 389 -655 386 -48 0 -117 -7 -153 -15z m286 -329 c65 -19 133
-65 163 -110 13 -19 22 -37 20 -39 -5 -6 -706 -296 -713 -296 -11 0 -6 66 9
123 21 81 50 132 108 195 115 121 271 169 413 127z"/>
<path d="M14225 2364 c-155 -34 -266 -96 -380 -209 -359 -358 -298 -1012 121
-1290 127 -85 254 -119 439 -119 159 -1 243 18 363 78 297 150 462 475 423
834 -25 227 -127 426 -286 555 -68 55 -192 118 -280 142 -87 24 -310 29 -400
9z m288 -269 c171 -44 311 -182 361 -355 57 -195 10 -428 -114 -564 -100 -109
-211 -158 -355 -158 -145 0 -255 49 -356 160 -193 211 -183 587 19 789 116
116 294 167 445 128z"/>
<path d="M22041 2369 c-173 -34 -328 -132 -415 -263 -69 -105 -73 -96 75 -160
72 -31 134 -56 137 -56 4 0 16 16 26 35 27 50 108 122 162 146 118 50 253 49
367 -4 117 -54 196 -164 205 -289 l5 -68 -45 20 c-143 63 -406 85 -573 47
-199 -45 -352 -155 -422 -303 l-38 -79 0 -135 c0 -117 3 -142 23 -192 77 -191
265 -312 506 -325 210 -11 392 64 506 208 l40 51 0 -106 0 -106 146 0 145 0
-3 533 c-4 464 -6 540 -21 592 -86 301 -328 467 -674 464 -59 -1 -128 -5 -152
-10z m344 -834 c43 -8 109 -29 147 -47 l70 -32 -5 -52 c-8 -79 -59 -176 -127
-243 -165 -163 -413 -194 -563 -70 -53 43 -77 96 -77 165 0 210 254 337 555
279z"/>
<path d="M25765 2363 c-269 -57 -476 -244 -564 -508 -94 -283 -47 -597 124
-823 89 -118 241 -218 401 -264 113 -32 324 -32 437 0 156 44 297 134 388 246
63 77 133 217 160 321 29 109 32 316 5 430 -72 316 -293 536 -598 599 -96 20
-259 19 -353 -1z m290 -268 c188 -49 328 -201 370 -400 61 -292 -77 -565 -331
-656 -82 -29 -216 -29 -298 0 -254 91 -392 365 -331 656 60 285 329 467 590
400z"/>
<path d="M28685 2362 c-99 -30 -185 -81 -262 -158 l-73 -72 0 99 0 99 -145 0
-145 0 0 -770 0 -770 149 0 150 0 3 482 c4 471 4 485 26 542 44 118 137 227
227 267 65 29 157 35 233 15 108 -27 172 -89 210 -201 14 -44 17 -115 20 -577
l3 -528 149 0 150 0 0 455 c0 290 4 473 11 507 28 138 125 270 236 325 49 24
70 28 138 28 115 0 169 -18 231 -79 42 -41 57 -65 75 -121 23 -69 24 -77 27
-592 l3 -523 144 0 145 0 0 548 c0 616 -2 630 -70 770 -91 183 -246 272 -475
272 -49 0 -119 -7 -154 -15 -128 -31 -260 -114 -340 -215 l-40 -51 -20 38
c-47 93 -145 174 -257 214 -85 30 -266 36 -349 11z"/>
<path d="M27581 2354 c-131 -35 -264 -132 -315 -230 l-25 -49 -1 128 0 127
-140 0 -140 0 0 -770 0 -770 150 0 150 0 0 464 c0 428 1 469 19 525 48 153
171 267 313 289 52 8 166 1 199 -12 12 -5 27 22 71 134 l57 141 -27 10 c-82
31 -222 37 -311 13z"/>
<path d="M15410 1793 c0 -504 1 -543 20 -622 63 -262 241 -409 516 -428 181
-12 336 46 466 176 l78 79 0 -104 0 -104 140 0 140 0 0 770 0 770 -150 0 -150
0 0 -463 c0 -378 -3 -473 -15 -520 -59 -226 -248 -363 -451 -328 -118 21 -182
59 -233 139 -64 102 -65 106 -69 665 l-3 507 -145 0 -144 0 0 -537z"/>
</g>
</g>
</svg>
