<svg version="1.1" xmlns="http://www.w3.org/2000/svg" xmlns:xlink="http://www.w3.org/1999/xlink" x="0px" y="0px" viewBox="0 0 1000 1000" xml:space="preserve">
  <style type="text/css">
    .icon-file-0{fill:#b4b5b0;}
  </style>
  <g><g><path class="icon-file-0" d="M214.2,10h408.3l285.8,285.8v571.7c0,33.8-12,62.7-35.9,86.6S819.6,990,785.8,990H214.2c-33.8,0-62.7-12-86.6-35.9s-35.9-52.8-35.9-86.6v-735c0-33.8,12-62.7,35.9-86.6S180.4,10,214.2,10L214.2,10z M540.8,377.5V91.7H214.2c-11.5,0-21.2,3.9-29,11.8s-11.8,17.5-11.8,29v735c0,11.5,3.9,21.2,11.8,29c7.9,7.9,17.5,11.8,29,11.8h571.7c11.5,0,21.2-3.9,29-11.8c7.9-7.9,11.8-17.5,11.8-29v-490L540.8,377.5L540.8,377.5z M792.9,295.8L622.5,125.5v170.4H792.9z"/></g></g>
</svg>
