<svg xmlns="http://www.w3.org/2000/svg" viewBox="0 0 49 49">
  <defs>
    <style>
      .icon-datasource-rest-1{fill:none;}
      .icon-datasource-rest-1,.icon-datasource-rest-3{stroke-miterlimit:10;stroke-width:1.7px;fill:none;}
    </style>
  </defs>
  <g transform="translate(0,6)">
    <g>
      <path class="icon-datasource-rest-1" d="M36.08,6.86c3.6,1.23,5.79,3.3,6.74,3.3s3.12.3,4,.39,1.62.86,1.05,1.62a5.84,5.84,0,0,0-1,1.61c-.29.66-1.42,7.68-6.07,12s-9.33,6.41-10.24,7.68c-.55.77-1.61,2-2.28,2s-2.83-2.1-3.78-2.58S18.06,31,14,28.67s-10-7.28-10.9-7.76S.47,20.25.43,19.11s2.18-1.8,2.65-2.75,3.59-6.55,7.38-9.58,7.13-3.86,7.89-4.63A5.87,5.87,0,0,1,20.81.43c.76-.09,1.34,1.12,2,1.52C24.63,3,32.47,5.62,36.08,6.86Z"/>
      <path class="icon-datasource-rest-1" d="M44.07,14.1a14.58,14.58,0,0,1-4.93,10.34A28.93,28.93,0,0,1,28.8,30.7s2.94-7.87,6.73-11.1A45.71,45.71,0,0,1,44.07,14.1Z"/>
      <line x1="32.6" y1="23.22" x2="31.91" y2="29.3"/>
      <line class="icon-datasource-rest-3" x1="42.69" y1="14.83" x2="42.14" y2="20.52"/>
      <line class="icon-datasource-rest-3" x1="40.62" y1="16.02" x2="39.93" y2="23.49"/>
      <line class="icon-datasource-rest-3" x1="38.26" y1="17.54" x2="37.44" y2="25.78"/>
      <line class="icon-datasource-rest-3" x1="35.57" y1="19.69" x2="34.53" y2="27.92"/>
      <path d="M15.54,8.79,18.1,10c1.18.55,1.4,1.19.79,1.78a2,2,0,0,1-1.8.46h0c.29.18.59.57,0,1.12s-.72.82-.66,1.06l-1-.48a1.1,1.1,0,0,1,.4-.58c.66-.64.75-1-.11-1.43l-1.38-.65-1.5,1.44-.94-.44Zm-.72,2,1.54.72a1.24,1.24,0,0,0,1.5-.13c.47-.45.11-.74-.38-1L16,9.73Z"/>
      <path d="M20.82,11.28l3.86,1.82-.55.53-2.92-1.38-.95.92L23,14.45l-.52.5-2.7-1.28-1.06,1,3,1.4-.55.53-3.91-1.85Z"/>
      <path d="M23.75,16.14c-.56.53-.18,1,.58,1.39s1.41.26,1.68,0a.38.38,0,0,0,0-.64c-.28-.27-.69-.56-1.3-1-.76-.59-.64-1.09-.26-1.45a2.84,2.84,0,0,1,3-.1c1.11.52,1.65,1.35.89,2.08l-.93-.44c.41-.47.13-.85-.52-1.16-.44-.21-1.09-.36-1.46,0s-.13.5.17.75l1.27,1A.87.87,0,0,1,27,17.91c-.82.78-2.21.59-3.27.09-1.23-.58-1.82-1.43-.94-2.31Z"/>
      <path d="M29.9,15.56l4.34,2-.55.53-1.7-.8-3.08,3L28,19.87l3.08-3-1.69-.8Z"/>
    </g>
  </g>
</svg>
