<svg version="1.0" xmlns="http://www.w3.org/2000/svg" viewBox="0 0 1700 1700">
<g transform="translate(400,1300) scale(0.1,-0.1)" stroke="none">
<path d="M765 9165 c-375 -60 -648 -246 -737 -504 l-23 -66 0 -4005 0 -4005
23 -66 c81 -235 307 -403 662 -492 l85 -21 3625 -4 c2621 -2 3652 0 3724 8
280 32 489 169 601 395 67 138 69 147 72 590 l3 400 -206 173 -206 174 -144
-63 -144 -64 0 -471 c0 -435 -1 -473 -17 -493 l-18 -21 -3655 0 c-2010 0
-3660 0 -3667 0 -6 0 -19 7 -27 16 -15 14 -16 385 -16 3934 0 3563 1 3918 16
3924 9 3 1650 6 3647 6 3062 0 3640 2 3684 14 92 24 83 162 86 -1323 l2 -1314
65 -22 c81 -27 153 -64 250 -126 41 -26 136 -82 210 -123 l135 -75 3 1482 c2
967 -1 1509 -8 1560 -38 298 -228 489 -568 574 -62 16 -326 17 -3722 19 -2931
2 -3671 0 -3735 -11z"/>
<path d="M2130 7213 c-174 -21 -296 -87 -355 -194 -60 -108 -31 -238 72 -329
49 -43 215 -114 304 -130 37 -7 728 -9 2065 -7 1842 2 2013 4 2063 19 121 38
201 94 259 181 21 32 26 54 30 124 10 195 -43 272 -220 320 -58 16 -213 17
-2123 19 -1133 0 -2076 -1 -2095 -3z"/>
<path d="M2117 5904 c-295 -63 -436 -249 -347 -452 36 -81 82 -119 186 -152
52 -16 135 -33 194 -39 66 -7 618 -11 1584 -11 l1481 0 160 161 c88 89 251
237 363 331 111 93 202 171 202 174 0 2 -845 4 -1877 3 -1610 -1 -1888 -3
-1946 -15z"/>
<path d="M6727 5719 c-217 -21 -466 -90 -662 -183 -547 -260 -922 -732 -1036
-1306 -31 -152 -33 -441 -5 -595 129 -712 652 -1258 1391 -1450 571 -148 1214
-31 1659 303 l58 44 32 -30 c17 -16 287 -271 599 -566 312 -295 579 -541 593
-546 37 -14 91 -12 128 5 17 8 93 77 169 153 123 123 139 143 144 179 11 84
21 73 -618 678 -330 313 -598 571 -597 574 2 4 29 51 60 106 234 409 283 923
132 1383 -268 818 -1122 1340 -2047 1251z m504 -528 c276 -63 510 -192 704
-386 253 -252 385 -564 385 -910 0 -350 -131 -658 -389 -915 -213 -212 -470
-344 -771 -396 -194 -33 -473 -7 -690 66 -262 87 -513 266 -673 478 -127 169
-209 360 -243 567 -25 154 -15 355 25 510 111 432 454 792 896 941 179 60 280
74 490 70 132 -4 203 -10 266 -25z"/>
</g>
</svg>
