<svg version="1.1" xmlns="http://www.w3.org/2000/svg" xmlns:xlink="http://www.w3.org/1999/xlink" x="0px" y="0px"
	 viewBox="3 3 33 33" xml:space="preserve">
<g>
  <path stroke="none" d="M22.2,31.5c-0.1,0-0.2,0-0.3-0.1c-0.8-0.2-1.3-0.5-1.6-0.9c-0.4-0.4-0.6-1.1-0.6-1.8v-3.9
  	c0-0.6-0.1-1.1-0.3-1.4c-0.2-0.3-0.6-0.5-1.1-0.6c-0.2,0-0.4-0.2-0.4-0.5c0-0.2,0.2-0.5,0.4-0.5c0.3-0.1,0.6-0.2,0.8-0.3
  	c0.2-0.1,0.3-0.3,0.4-0.5c0.1-0.2,0.2-0.4,0.2-0.6c0-0.3,0.1-0.6,0.1-0.9v-3.6c0-1.4,0.8-2.3,2.2-2.8c0.3-0.1,0.5,0.1,0.6,0.3
  	c0.1,0.3-0.1,0.5-0.3,0.6c-1,0.3-1.5,0.9-1.5,1.8v3.6c0,0.4,0,0.7-0.1,1.1c-0.1,0.4-0.2,0.7-0.3,1c-0.2,0.3-0.4,0.5-0.7,0.7
  	c0.3,0.2,0.5,0.4,0.6,0.6c0.3,0.5,0.4,1.2,0.4,1.9v3.9c0,0.5,0.1,0.9,0.3,1.2c0.2,0.3,0.7,0.5,1.3,0.6c0.2,0.1,0.4,0.3,0.4,0.5
  	C22.7,31.3,22.5,31.5,22.2,31.5z"/>
  <path stroke="none" d="M30.7,31.5c-0.3,0-0.5-0.2-0.5-0.5v0c0-0.2,0.2-0.4,0.4-0.5c0.6-0.2,1-0.4,1.3-0.6c0.2-0.3,0.3-0.6,0.3-1.2
  	v-3.9c0-0.8,0.1-1.4,0.4-1.9c0.1-0.3,0.4-0.5,0.6-0.6c-0.3-0.2-0.5-0.5-0.7-0.7c-0.2-0.3-0.3-0.6-0.3-1c0-0.3-0.1-0.7-0.1-1.1v-3.6
  	c0-0.9-0.5-1.5-1.5-1.8c-0.3-0.1-0.4-0.4-0.3-0.6c0.1-0.3,0.4-0.4,0.6-0.3c1.4,0.4,2.2,1.4,2.2,2.8v3.6c0,0.3,0,0.6,0.1,0.9
  	c0,0.2,0.1,0.5,0.2,0.6c0.1,0.2,0.2,0.3,0.4,0.5c0.2,0.1,0.4,0.2,0.8,0.3c0.2,0.1,0.4,0.3,0.4,0.5c0,0.2-0.2,0.5-0.4,0.5
  	c-0.6,0.1-1,0.3-1.1,0.6c-0.2,0.3-0.3,0.8-0.3,1.4v3.9c0,0.8-0.2,1.4-0.6,1.8c-0.4,0.4-0.9,0.7-1.7,0.9
  	C30.9,31.5,30.8,31.5,30.7,31.5z"/>
  <path stroke="none" d="M6.1,32.1c-0.4,0-0.8-0.1-1.2-0.2v-1.1C5.4,30.9,5.7,31,6.1,31c0.7,0,1.2-0.2,1.6-0.6s0.7-1.1,0.9-2.2l2.9-13.7
  	H9l0.2-0.8l2.4-0.2l0.4-1.9c0.3-1.3,0.7-2.3,1.4-2.9s1.5-0.9,2.7-0.9c0.6,0,1.2,0.1,1.9,0.4l-0.3,0.9C17,9,16.5,8.9,16,8.9
  	c-0.8,0-1.3,0.2-1.8,0.6s-0.8,1.1-1,2.1l-0.4,1.9h2.9l-0.2,0.9h-2.9l-3,13.9c-0.3,1.3-0.7,2.2-1.2,2.7S7.1,32.1,6.1,32.1z"/>
</g>
</svg>
