<svg version="1.1" xmlns="http://www.w3.org/2000/svg" xmlns:xlink="http://www.w3.org/1999/xlink" x="0px" y="0px"
	 viewBox="0 0 35 35" style="enable-background:new 0 0 35 35;" xml:space="preserve">
<style type="text/css">
	.icon-pipelines-0{fill:none;stroke-miterlimit:10;}
</style>
<path class="icon-pipelines-0" d="M4.1,22.7c0.3,1.2,1.3,3,1.3,3.7c0.1,1.4-0.5,2-1.3,2s-1.6-0.6-1.5-2C2.7,25.7,3.7,23.9,4.1,22.7z"/>
<g>
	<path class="icon-pipelines-0" d="M29.1,13.9c-0.8,0-1.4,0.6-1.4,1.4v0.2h-6.3v-0.8c0-0.5-0.4-0.9-0.9-0.9h-6.2c-0.5,0-0.9,0.4-0.9,0.9v0.8H7.3
		v-0.2c0-0.8-0.6-1.4-1.4-1.4c-0.8,0-1.4,0.6-1.4,1.4v6c0,0.8,0.6,1.4,1.4,1.4c0.8,0,1.4-0.6,1.4-1.4v-0.2h6.3v0.8
		c0,0.5,0.4,0.9,0.9,0.9h6.2c0.5,0,0.9-0.4,0.9-0.9v-0.8h6.3v0.2c0,0.8,0.6,1.4,1.4,1.4c0.8,0,1.4-0.6,1.4-1.4v-6
		C30.6,14.6,29.9,13.9,29.1,13.9z"/>
	<rect x="16.6" y="9.9" class="st0" width="2" height="2.8"/>
	<path class="icon-pipelines-0" d="M16,10.5c-0.5,0.3-1.9,0.7-2.6,0.7c-1.4,0.1-2.6-0.3-2.6-0.7s1.2-0.7,2.6-0.7C14.1,9.8,15.4,10.2,16,10.5z"/>
	<path class="icon-pipelines-0" d="M19.3,10.5c0.5,0.3,1.9,0.7,2.6,0.7c1.4,0.1,2.6-0.3,2.6-0.7s-1.2-0.7-2.6-0.7C21.2,9.8,19.8,10.2,19.3,10.5z"
		/>
</g>
</svg>
