<svg version="1.0" xmlns="http://www.w3.org/2000/svg" viewBox="0 0 1389 416">
<g transform="translate(0,416) scale(0.1,-0.1)"
fill="#fff" stroke="none">
<path d="M488 4140 c-225 -39 -388 -193 -433 -405 -18 -87 -18 -122 0 -208 39
-184 181 -337 364 -391 68 -20 198 -21 270 -1 224 59 381 264 381 496 0 221
-148 424 -355 488 -76 23 -166 32 -227 21z m160 -307 l3 -112 112 -3 112 -3 0
-85 0 -85 -112 -3 -112 -3 -3 -112 -3 -112 -84 -3 c-61 -2 -87 1 -92 10 -5 7
-9 59 -9 116 l0 102 -110 0 -110 0 0 90 0 90 110 0 110 0 0 99 c0 55 3 107 6
116 5 13 21 15 93 13 l86 -3 3 -112z"/>
<path d="M1571 4111 c-7 -13 -11 -139 -11 -356 0 -279 -3 -341 -15 -365 -23
-45 -53 -60 -115 -60 -45 0 -65 6 -102 29 -25 16 -49 34 -52 40 -15 23 -43 9
-92 -46 -28 -32 -53 -63 -57 -70 -12 -20 4 -43 61 -83 109 -78 254 -100 387
-59 55 17 78 31 121 74 43 43 56 65 73 121 20 65 21 88 19 429 l-3 360 -102 3
c-93 2 -103 1 -112 -17z"/>
<path d="M5197 4084 c-4 -4 -7 -47 -7 -95 l0 -88 -52 -3 -53 -3 0 -90 0 -90
52 -3 52 -3 3 -232 c3 -223 4 -233 27 -270 35 -58 90 -81 186 -82 54 0 95 6
128 18 l47 19 0 73 c0 88 -8 98 -69 84 -56 -12 -92 4 -103 48 -5 18 -7 101 -6
185 l3 153 80 3 c96 3 105 11 105 97 0 86 -9 94 -105 97 l-80 3 -5 90 -5 90
-95 3 c-53 1 -99 0 -103 -4z"/>
<path d="M5628 4063 c-8 -10 -18 -26 -21 -36 -10 -27 19 -76 49 -83 72 -18
120 69 68 121 -21 21 -77 19 -96 -2z"/>
<path d="M2150 3892 c-162 -54 -268 -188 -278 -351 -10 -176 72 -312 234 -388
54 -26 69 -28 175 -28 113 0 116 1 191 38 84 41 142 98 187 182 24 46 26 60
26 170 0 117 -1 121 -34 183 -42 78 -104 135 -188 174 -56 27 -80 32 -162 35
-74 2 -109 -1 -151 -15z m243 -205 c60 -46 82 -92 82 -172 0 -129 -70 -205
-190 -205 -70 0 -127 27 -159 78 -49 75 -55 155 -16 232 37 73 91 102 181 98
54 -3 73 -9 102 -31z"/>
<path d="M3713 3896 c-192 -62 -302 -260 -259 -465 41 -194 169 -300 373 -309
111 -5 186 16 263 73 66 48 66 70 1 124 -27 23 -54 41 -59 41 -6 0 -28 -11
-48 -25 -116 -79 -262 -47 -309 68 l-15 37 260 0 c251 0 260 1 270 21 13 23 5
108 -16 185 -31 110 -124 217 -214 245 -57 18 -199 21 -247 5z m177 -178 c45
-23 73 -59 85 -110 l7 -28 -162 0 -161 0 7 23 c25 83 84 133 159 136 12 1 41
-9 65 -21z"/>
<path d="M4620 3890 c-25 -12 -62 -38 -82 -58 l-38 -36 0 47 c0 56 -7 59 -125
55 l-80 -3 -3 -374 c-2 -293 1 -376 10 -383 21 -13 174 -10 186 5 6 7 12 105
14 249 l3 236 30 44 c40 56 94 77 153 60 74 -22 77 -32 80 -327 3 -185 7 -262
15 -267 14 -9 159 -11 181 -2 14 5 16 40 16 289 0 224 -3 291 -15 324 -36 104
-106 152 -224 158 -61 3 -85 0 -121 -17z"/>
<path d="M2700 3885 c-14 -17 -12 -23 180 -513 50 -128 90 -241 88 -250 -6
-30 -51 -43 -115 -33 -31 5 -63 6 -70 4 -9 -4 -13 -29 -13 -82 0 -75 1 -78 28
-91 15 -7 64 -15 109 -18 102 -6 153 16 202 83 40 56 62 107 221 533 109 291
130 355 119 368 -9 12 -32 14 -108 12 l-96 -3 -20 -60 c-11 -33 -47 -144 -79
-247 -33 -103 -62 -185 -65 -182 -3 3 -42 114 -86 247 l-80 242 -101 3 c-81 2
-103 0 -114 -13z"/>
<path d="M9623 2710 c-467 -53 -859 -328 -1067 -748 -47 -93 -82 -197 -112
-327 -27 -114 -27 -407 0 -520 55 -239 140 -418 277 -587 200 -246 482 -412
804 -475 123 -23 348 -23 475 1 561 107 988 542 1084 1101 20 115 20 325 0
440 -94 553 -518 989 -1064 1095 -114 23 -297 32 -397 20z m277 -682 c314 -58
535 -393 491 -740 -34 -260 -175 -452 -396 -540 -68 -26 -97 -32 -191 -36
-137 -6 -226 9 -319 52 -227 106 -356 327 -356 611 0 447 339 734 771 653z"/>
<path d="M59 2571 l-29 -29 0 -256 0 -255 24 -28 24 -28 386 -5 c297 -4 388
-8 398 -18 10 -10 14 -187 18 -878 l5 -866 33 -29 32 -29 271 0 271 0 29 31
29 31 0 853 c0 825 1 854 19 876 l19 24 386 5 386 5 27 28 28 27 0 256 0 256
-33 29 -32 29 -1131 0 -1131 0 -29 -29z"/>
<path d="M3255 2586 c-258 -66 -452 -269 -499 -525 -23 -123 -24 -1807 -1
-1851 31 -59 34 -60 326 -60 253 0 268 1 292 20 15 12 31 38 37 58 6 24 10
323 10 849 l0 811 26 31 c14 17 42 35 62 41 23 6 201 10 455 10 288 0 425 3
440 11 56 28 57 34 57 305 l0 252 -29 31 -29 31 -549 -1 c-407 0 -561 -4 -598
-13z"/>
<path d="M4908 2571 l-33 -29 -3 -1162 -2 -1162 34 -34 34 -34 272 0 272 0 29
31 29 31 0 1163 0 1163 -29 31 -29 31 -271 0 -271 0 -32 -29z"/>
<path d="M5974 2582 c-41 -33 -44 -52 -44 -297 0 -205 2 -241 17 -266 9 -15
24 -32 32 -36 9 -4 185 -10 392 -13 298 -4 379 -8 392 -19 16 -12 17 -85 17
-858 0 -908 -1 -890 51 -927 20 -14 60 -16 289 -16 229 0 269 2 289 16 52 37
51 19 51 927 0 773 1 846 17 858 13 11 94 15 397 19 210 3 388 9 397 13 8 4
23 21 32 36 15 25 17 61 17 265 0 161 -4 243 -12 261 -26 58 30 55 -1190 55
-1049 0 -1124 -2 -1144 -18z"/>
<path d="M11414 2566 l-34 -34 0 -1152 c0 -828 3 -1157 11 -1173 29 -56 33
-57 316 -57 168 0 271 4 286 11 13 6 31 23 40 39 16 26 17 103 17 877 0 718 2
852 14 869 14 18 31 19 513 19 546 0 549 0 581 -59 16 -28 17 -101 20 -863 l3
-831 28 -31 29 -31 271 0 271 0 32 29 33 29 3 866 c2 824 1 871 -17 961 -53
258 -211 439 -471 539 -54 21 -67 21 -983 24 l-928 3 -35 -35z"/>
</g>
</svg>
