<svg version="1.1" xmlns="http://www.w3.org/2000/svg" xmlns:xlink="http://www.w3.org/1999/xlink" x="0px" y="0px"
	 viewBox="0 0 24 24" xml:space="preserve">
<g>
	<path fill="#6B6D6C" stroke="none" d="M11.4,10.4c0.2,0,0.5,0,0.7,0.2c0.1,0,0.1,0.1,0,0.1c0,0.1,0,0.2-0.1,0.2c0,0-0.1,0-0.2-0.1
		c-0.2-0.1-0.4-0.1-0.6-0.1c0,0-0.1,0-0.1,0.1c-0.1,0.1-0.1,0.2,0,0.3c0.1,0,0.1,0.1,0.2,0.1c0.1,0,0.3,0.1,0.4,0.1
		c0.1,0,0.1,0,0.2,0.1c0.4,0.2,0.3,0.8,0,0.9c-0.1,0.1-0.3,0.1-0.4,0.1c-0.3,0-0.6,0-0.9-0.2c-0.1,0-0.1-0.1,0-0.1
		c0-0.1,0-0.1,0.1-0.2c0-0.1,0.1-0.1,0.1,0c0.2,0.1,0.3,0.2,0.5,0.2c0.1,0,0.2,0,0.3,0c0,0,0.1,0,0.1-0.1c0.1-0.1,0.1-0.2,0-0.3
		c-0.1,0-0.2-0.1-0.2-0.1c-0.1,0-0.3-0.1-0.4-0.1c-0.1,0-0.1,0-0.2-0.1c-0.4-0.2-0.3-0.7-0.1-0.9C11,10.5,11.2,10.4,11.4,10.4z"/>
	<path fill="none" stroke="#6B6D6C" stroke-miterlimit="10" d="M12.4,17.2c0.1,0,0.2,0.1,0.3,0.1c0.7,0.4,1.4,0.5,2.2,0.4
		c0.7-0.1,1.2-0.4,1.7-0.8c0.4-0.3,0.6-0.7,0.8-1.1c0-0.1,0-0.2,0.1-0.2c0.1,0,0.1,0,0.2,0c0,0,0,0,0,0c0.6,0.1,1.1,0.1,1.7,0.1
		c0.9-0.1,1.8-0.5,2.4-1.2c1.3-1.2,1.8-2.8,1.4-4.5c-0.4-2-2.1-3.4-4.1-3.6c-0.8-0.1-1.5,0-2.2,0.3c-0.2,0.1-0.4,0.2-0.6,0.3
		c-0.1-0.1-0.2-0.3-0.2-0.4c-0.7-1.2-2-1.9-3.4-1.7c-0.9,0.1-1.7,0.6-2.3,1.3c-0.2,0.2-0.3,0.4-0.5,0.6c0-0.1-0.1-0.1-0.1-0.2
		c-0.2-0.4-0.5-0.7-0.8-1c-1.1-1.1-2.4-1.5-4-1.2c-1.1,0.3-2,0.9-2.6,1.9c-0.6,0.9-0.7,1.9-0.5,3c0.1,0.3,0.2,0.7,0.3,1
		c0,0.1,0,0.1,0,0.1c-0.1,0.1-0.2,0.1-0.3,0.2c-1.4,0.9-2,2.6-1.5,4.1c0.3,1.1,1,1.9,2.1,2.3c0.5,0.2,1.1,0.3,1.6,0.3
		c0.3,0,0.5-0.1,0.8-0.1c0.1,0,0.1,0,0.1,0.1c0,0.1,0.1,0.2,0.1,0.3c0.6,1.5,1.6,2.3,3.2,2.4c0.7,0.1,1.4-0.1,2-0.5
		c0.7-0.4,1.2-1,1.6-1.8C12.3,17.5,12.4,17.3,12.4,17.2z"/>
	<path fill="#6B6D6C" stroke="none" d="M13.4,10.4c0.1,0,0.3,0,0.4,0c0.1,0,0.1,0,0.1,0.1c0,0.1,0,0.1,0,0.2c0,0.1,0,0.1-0.1,0.1
		c-0.1,0-0.3,0-0.4,0c0,0.2-0.1,0.3-0.1,0.5c-0.1,0.5-0.2,1-0.3,1.5c0,0.1-0.1,0.2-0.1,0.3c-0.2,0.4-0.5,0.5-0.9,0.5
		c-0.1,0-0.1,0-0.2,0c0,0-0.1,0,0-0.1c0-0.1,0.1-0.2,0.1-0.3c0,0,0,0,0.1,0c0,0,0.1,0,0.1,0c0.2,0,0.3,0,0.4-0.3
		c0.1-0.2,0.1-0.5,0.2-0.7c0.1-0.4,0.2-0.9,0.2-1.3c0,0,0-0.1,0-0.1c-0.1,0-0.2,0-0.3,0c-0.1,0-0.1,0-0.1-0.1c0-0.1,0-0.2,0-0.2
		c0,0,0-0.1,0.1-0.1c0.1,0,0.1,0,0.2,0c0.1,0,0.1,0,0.1-0.1c0-0.2,0.1-0.3,0.1-0.4c0.1-0.4,0.4-0.5,0.8-0.5c0.1,0,0.2,0,0.3,0
		c0.1,0,0.1,0,0,0.1c0,0.1-0.1,0.2-0.1,0.2c0,0.1,0,0.1-0.1,0.1c-0.1,0-0.1,0-0.2,0c-0.2,0-0.3,0.1-0.4,0.3c0,0,0,0.1,0,0.1
		C13.5,10.2,13.4,10.3,13.4,10.4z"/>
	<path fill="#6B6D6C" stroke="none" d="M6.4,11.2c0-0.3-0.1-0.4-0.3-0.4c-0.2,0-0.5,0-0.7,0.1c-0.1,0-0.1,0-0.1,0c0-0.1,0-0.1-0.1-0.2
		c0-0.1,0-0.1,0.1-0.1c0.1,0,0.3-0.1,0.4-0.1c0.2,0,0.4,0,0.7,0c0.3,0.1,0.5,0.3,0.5,0.7c0,0.4,0,0.8,0,1.2c0,0,0,0.1,0,0.1
		c-0.4,0.1-0.8,0.2-1.2,0.1c-0.3-0.1-0.5-0.2-0.5-0.5c-0.1-0.3,0.1-0.6,0.4-0.7c0.3-0.1,0.5-0.1,0.8-0.1
		C6.3,11.2,6.4,11.2,6.4,11.2z M6.4,11.6c-0.2,0-0.5-0.1-0.7,0c-0.2,0.1-0.2,0.2-0.2,0.3c0,0.1,0.1,0.2,0.2,0.3c0.2,0,0.4,0,0.7,0
		C6.4,12,6.4,11.8,6.4,11.6C6.4,11.6,6.4,11.6,6.4,11.6z"/>
	<path fill="#6B6D6C" stroke="none" d="M8.8,11.6c0,0.4,0.2,0.6,0.6,0.6c0.2,0,0.4,0,0.6-0.1c0.1,0,0.1,0,0.1,0c0,0.1,0,0.1,0.1,0.2
		c0,0,0,0.1,0,0.1c-0.1,0-0.3,0.1-0.4,0.1c-0.2,0-0.5,0-0.7-0.1c-0.4-0.1-0.6-0.4-0.6-0.8c0-0.2,0-0.3,0-0.5
		c0.1-0.4,0.4-0.7,0.9-0.7c0.2,0,0.4,0,0.6,0.1c0.3,0.2,0.4,0.4,0.4,0.7c0,0.1,0,0.1,0,0.2c0,0.1,0,0.1-0.1,0.1
		C9.7,11.6,9.3,11.6,8.8,11.6C8.8,11.6,8.8,11.6,8.8,11.6z M9.7,11.3c0-0.3-0.2-0.5-0.4-0.5c-0.3,0-0.5,0.2-0.5,0.5
		C9.1,11.3,9.4,11.3,9.7,11.3z"/>
	<path fill="#6B6D6C" stroke="none" d="M20,11.6c0,0.3,0.2,0.6,0.5,0.6c0.2,0,0.4,0,0.6-0.1c0.1,0,0.1,0,0.1,0.1c0,0.1,0,0.1,0.1,0.2
		c0,0.1,0,0.1,0,0.1c-0.3,0.1-0.6,0.1-0.9,0.1c-0.1,0-0.3-0.1-0.4-0.1c-0.3-0.1-0.4-0.3-0.5-0.6c0-0.2,0-0.4,0-0.6
		c0.1-0.4,0.4-0.7,0.9-0.7c0.2,0,0.4,0,0.6,0.1c0.3,0.2,0.4,0.4,0.4,0.7c0,0.1,0,0.2,0,0.3c0,0.1,0,0.1-0.1,0.1
		C20.9,11.6,20.5,11.6,20,11.6C20.1,11.6,20,11.6,20,11.6z M21,11.3c0-0.3-0.2-0.5-0.4-0.5c-0.3,0-0.5,0.2-0.5,0.5
		C20.3,11.3,20.7,11.3,21,11.3z"/>
	<path fill="#6B6D6C" stroke="none" d="M14,11.5c0-0.4,0.1-0.8,0.5-1c0.4-0.2,1-0.2,1.3,0.2c0.2,0.2,0.2,0.5,0.2,0.7c0,0.1,0,0.3-0.1,0.4
		c-0.1,0.4-0.4,0.6-0.8,0.6c-0.2,0-0.3,0-0.5-0.1C14.2,12.4,14,12,14,11.7C14,11.6,14,11.6,14,11.5z M15.5,11.5
		c0-0.2-0.1-0.3-0.1-0.4c-0.1-0.2-0.2-0.2-0.4-0.2c-0.2,0-0.4,0.1-0.4,0.2c-0.1,0.3-0.1,0.6,0,0.9c0.1,0.2,0.2,0.3,0.4,0.3
		c0.2,0,0.4-0.1,0.4-0.3C15.5,11.8,15.5,11.6,15.5,11.5z"/>
	<path fill="#6B6D6C" stroke="none" d="M3.9,12.5c-0.3,0-0.6-0.1-0.8-0.2c-0.1,0-0.1-0.1,0-0.1c0-0.1,0.1-0.1,0.1-0.2c0-0.1,0.1-0.1,0.1,0
		c0.2,0.1,0.3,0.2,0.5,0.2c0.1,0,0.2,0,0.3,0c0,0,0.1,0,0.1-0.1c0.1-0.1,0.1-0.2,0-0.3c-0.1-0.1-0.2-0.1-0.3-0.1
		c-0.1-0.1-0.3-0.1-0.4-0.1C3,11.3,3,10.8,3.4,10.6c0.1-0.1,0.3-0.1,0.4-0.1c0.3,0,0.6,0,0.8,0.1c0.1,0,0.1,0.1,0,0.1
		c0,0.1-0.1,0.1-0.1,0.2c0,0,0,0.1-0.1,0c-0.2,0-0.3-0.1-0.5-0.1c-0.1,0-0.2,0-0.3,0c-0.1,0-0.1,0.1-0.1,0.2c0,0.1,0,0.1,0.1,0.2
		c0.1,0.1,0.2,0.1,0.4,0.1c0.1,0,0.3,0.1,0.4,0.2c0.4,0.2,0.3,0.7,0.1,0.9C4.3,12.5,4.1,12.5,3.9,12.5z"/>
	<path fill="#6B6D6C" stroke="none" d="M18.8,12.5c-0.2,0-0.3,0-0.4-0.1c-0.4-0.1-0.7-0.4-0.7-0.9c0-0.2,0-0.3,0-0.5c0.1-0.4,0.5-0.7,0.9-0.7
		c0.2,0,0.4,0,0.7,0.1c0.1,0,0.1,0,0.1,0.1c0,0.1,0,0.1-0.1,0.2c0,0.1-0.1,0.1-0.1,0.1c-0.1,0-0.3,0-0.4,0c-0.3,0-0.5,0.1-0.5,0.4
		c-0.1,0.2-0.1,0.4,0,0.5c0.1,0.3,0.3,0.4,0.6,0.4c0.1,0,0.3,0,0.4-0.1c0.1,0,0.1,0,0.1,0.1c0,0.1,0,0.1,0.1,0.2c0,0.1,0,0.1,0,0.1
		C19.1,12.5,19,12.5,18.8,12.5z"/>
	<path fill="#6B6D6C" stroke="none" d="M7.3,11c0-0.5,0-1,0-1.5c0-0.1,0-0.1,0.1-0.1c0.1,0,0.2,0,0.2,0c0.1,0,0.1,0,0.1,0.1c0,0.8,0,1.5,0,2.3
		c0,0.2,0,0.4,0,0.7c0,0.1,0,0.1-0.1,0.1c-0.1,0-0.2,0-0.3,0c-0.1,0-0.1,0-0.1-0.1C7.3,11.9,7.3,11.4,7.3,11z"/>
	<path fill="#6B6D6C" stroke="none" d="M16.8,10.6c0.1-0.1,0.2-0.1,0.4-0.2c0.1,0,0.3,0,0.4,0c0,0,0,0,0,0.1c0,0.1-0.1,0.2-0.1,0.3
		c0,0-0.1,0-0.1,0c-0.1,0-0.2,0-0.2,0c-0.2,0-0.4,0.2-0.4,0.5c0,0.3,0,0.6,0,0.9c0,0.1,0,0.2,0,0.2c0,0.1,0,0.1-0.1,0.1
		c-0.1,0-0.2,0-0.3,0c-0.1,0-0.1,0-0.1-0.1c0-0.2,0-0.3,0-0.5c0-0.5,0-0.9,0-1.4c0-0.1,0-0.1,0.1-0.1c0.1,0,0.2,0,0.2,0
		C16.8,10.4,16.8,10.5,16.8,10.6C16.8,10.6,16.8,10.6,16.8,10.6z"/>
</g>
</svg>
