<svg version="1.0" xmlns="http://www.w3.org/2000/svg" viewBox="0 0 128 128" xml:space="preserve">
  <g transform="translate(0,128) scale(0.1,-0.1)" fill="#3F8FCD" stroke="none">
    <path d="M62 1150 c-61 -37 -62 -45 -62 -510 0 -465 1 -473 62 -510 32 -19 49
    -20 578 -20 529 0 546 1 578 20 61 37 62 45 62 510 0 465 -1 473 -62 510 -32
    19 -49 20 -578 20 -529 0 -546 -1 -578 -20z m1106 -504 c2 -329 0 -421 -10
    -428 -15 -9 -1008 -11 -1032 -2 -14 5 -16 52 -16 423 0 230 3 421 7 424 3 4
    241 6 527 5 l521 -3 3 -419z"/>
    <path d="M282 838 c-27 -27 -13 -62 55 -130 l67 -68 -67 -68 c-39 -40 -67 -76
    -67 -88 0 -25 29 -54 55 -54 10 0 60 41 111 92 71 69 94 98 94 118 0 19 -23
    49 -93 118 -94 93 -125 110 -155 80z"/>
    <path d="M552 518 c-7 -7 -12 -24 -12 -38 0 -45 14 -50 155 -50 141 0 155 5
    155 50 0 14 -5 31 -12 38 -17 17 -269 17 -286 0z"/>
  </g>
</svg>
