<svg version="1.1" xmlns="http://www.w3.org/2000/svg" xmlns:xlink="http://www.w3.org/1999/xlink" x="0px" y="0px"
	 viewBox="0 0 18.9 24.9" xml:space="preserve">
<style type="text/css">
	.icon-trash-0{fill:none;stroke-miterlimit:10;}
</style>
  <g>
  	<g>
  		<path class="icon-trash-0" d="M9.5,3.7c0,0,6.3,0,6.4,0c1,0,1.7,0.2,2.1,0.5c0.6,0.6,0.4,1.2,0.3,1.9H9.5H0.6C0.5,5.4,0.3,4.8,0.9,4.2
  			C1.3,3.9,2,3.7,3,3.7C3.2,3.7,9.5,3.7,9.5,3.7z"/>
  	</g>
  	<g>
  		<path class="icon-trash-0" d="M11.9,2.9C12,2.2,12.2,1.6,11.5,1c-0.4-0.3-1-0.5-2.1-0.5c-1,0-1.7,0.2-2.1,0.5C6.8,1.6,6.9,2.2,7,2.9"/>
  	</g>
  	<path class="icon-trash-0" d="M1.3,7.7l1.4,14.1c0.2,1.5,1.2,2.6,2.6,2.6h8.3c1.4,0,2.4-1.1,2.6-2.6l1.5-14.1"/>
  	<line class="icon-trash-0" x1="6.2" y1="21.9" x2="5.2" y2="8.6"/>
  	<line class="icon-trash-0" x1="9.4" y1="21.9" x2="9.4" y2="8.6"/>
  	<line class="icon-trash-0" x1="12.7" y1="21.9" x2="13.7" y2="8.6"/>
  </g>
</svg>
