<svg xmlns="http://www.w3.org/2000/svg" viewBox="0 0 45 45">
  <defs>
    <style>
      .icon-datasource-soap {stroke-linecap:round;fill:none;stroke-width:1.7px;}
    </style>
  </defs>
  <g>
    <g>
      <path class="icon-datasource-soap" d="M9.57,20.63a59.62,59.62,0,0,0-6.41,4.81c-1.11,1.09-1.39,8.07,0,9.64C4.74,37,15.18,42.56,18.63,41.83S40,28.35,41.09,27.14s1.23-9,.35-10.58-11.78-6.34-13.74-6S9.57,20.63,9.57,20.63Z"/>
      <path class="icon-datasource-soap" d="M6.35,27.84s2.13,1.23,4.55,2.58A34.28,34.28,0,0,0,16.64,33c1.09.36,1.94-.07,3.41-1.07S38.21,19.72,38.21,19.72"/>
      <circle cx="4.1" cy="12.96" r="2.54"/>
      <circle cx="13.3" cy="18.77" r="3.27"/>
      <circle cx="15.03" cy="6.64" r="4.49"/>
      <path d="M16,28.11A1.81,1.81,0,0,0,18.1,28c.71-.48.65-.9.32-1.13a1,1,0,0,0-.91-.12c-.45.14-.94.36-1.75.68a2.12,2.12,0,0,1-2.13-.09c-.87-.62-.41-1.49.42-2A2.86,2.86,0,0,1,17.22,25l-.81.55a1.54,1.54,0,0,0-1.77.13c-.37.25-.72.67-.28,1a1.14,1.14,0,0,0,1.11,0c.09,0,1.36-.55,1.67-.66a2.24,2.24,0,0,1,2,.17c1,.7.43,1.6-.48,2.22a3,3,0,0,1-3.49.2Z"/>
      <path d="M23.15,22.27c1.24.89,1.43,2.19.05,3.12a4,4,0,0,1-4.5-.12c-1.23-.88-1.43-2.18-.05-3.12A4.06,4.06,0,0,1,23.15,22.27Zm-3.64,2.45a2.71,2.71,0,0,0,3.07.23c1-.67.59-1.54-.25-2.13a2.71,2.71,0,0,0-3.06-.23C18.28,23.27,18.68,24.13,19.51,24.72Z"/>
      <path d="M23,19.39l.87-.59L30,20.69l-.87.58-1.58-.52L25.65,22l.71,1.11-.84.57Zm2.33,2.05,1.42-1-2.56-.86,0,0Z"/>
      <path d="M26.06,17.3l2.05-1.39a2.42,2.42,0,0,1,2.92-.1c.54.38,1.08,1.11-.25,2l-1.24.83,1.67,1.19-.81.55Zm2.86.91,1.19-.8c.37-.25.65-.67.1-1.06a1.22,1.22,0,0,0-1.52,0l-1.2.81Z"/>
    </g>
  </g>
</svg>
