<svg version="1.0" xmlns="http://www.w3.org/2000/svg" viewBox="0 0 507 506" preserveAspectRatio="xMidYMid meet">
  <g transform="translate(0,506) scale(0.1,-0.1)" stroke="none">
    <path d="M2335 4789 c-172 -25 -396 -119 -541 -227 -207 -154 -373 -386 -445
      -622 l-23 -75 -101 3 c-123 5 -209 -14 -320 -68 -151 -74 -267 -189 -338 -337
      -37 -77 -42 -83 -105 -120 -90 -51 -254 -216 -308 -308 -88 -152 -126 -285
      -126 -450 -1 -221 80 -424 235 -591 117 -125 249 -210 412 -265 l70 -24 652
      -3 653 -3 2 543 3 543 93 -163 c52 -89 97 -162 102 -162 18 0 175 98 173 108
      -2 9 -469 822 -478 830 -3 4 -473 -809 -477 -827 -3 -13 143 -110 167 -111 6
      0 48 65 94 145 46 79 89 152 97 162 11 15 13 -50 14 -420 l0 -438 -532 3
      c-527 3 -534 4 -603 27 -116 38 -184 80 -271 166 -133 132 -194 282 -194 475
      0 195 58 337 190 470 71 71 102 94 184 135 l99 50 17 60 c53 193 193 323 381
      355 113 19 188 8 297 -44 50 -25 92 -42 92 -38 0 4 7 62 16 127 59 456 349
      782 773 869 160 33 321 29 486 -15 273 -71 512 -275 622 -530 61 -141 75 -214
      80 -426 l5 -192 107 54 c174 87 228 100 411 100 131 0 167 -4 233 -23 292 -84
      500 -303 568 -599 18 -80 21 -113 16 -226 -6 -154 -22 -218 -82 -342 -101
      -207 -278 -352 -511 -417 -77 -22 -97 -22 -646 -26 l-568 -3 -2 -535 -3 -535
      -94 161 c-51 88 -96 160 -99 160 -12 0 -181 -104 -178 -109 10 -18 451 -771
      466 -794 l17 -29 20 34 c70 115 463 788 463 792 0 6 -169 106 -178 106 -4 -1
      -44 -65 -89 -143 -45 -78 -89 -151 -97 -162 -14 -18 -15 24 -13 410 l2 430
      475 6 c508 6 502 5 656 62 441 162 739 648 671 1097 -36 237 -128 420 -297
      591 -177 179 -387 282 -628 309 -110 12 -249 2 -352 -25 -30 -8 -55 -13 -56
      -12 -2 1 -12 49 -24 105 -85 418 -395 763 -810 902 -157 53 -364 72 -525 49z"
    />
  </g>
</svg>
