<svg version="1.0" xmlns="http://www.w3.org/2000/svg" viewBox="0 0 1600 1600">
  <g transform="translate(0,1600) scale(0.1,-0.1)" stroke="none">
    <path d="M15055 15879 c-1735 -128 -3395 -629 -4725 -1427 -200 -120 -516
    -332 -697 -468 -329 -247 -537 -428 -846 -733 -832 -822 -2083 -2255 -3759
    -4306 l-237 -290 -1108 16 c-1732 26 -1561 26 -1613 2 -25 -11 -59 -36 -76
    -54 -59 -63 -1455 -1852 -1465 -1875 -18 -48 22 -98 96 -119 27 -8 523 -116
    1100 -240 578 -124 1060 -228 1071 -231 17 -4 23 -16 28 -53 3 -26 20 -90 36
    -142 16 -52 30 -100 30 -107 0 -7 -95 -220 -210 -472 -235 -514 -231 -500
    -189 -636 82 -265 355 -636 804 -1093 525 -534 948 -849 1241 -926 110 -28
    101 -31 608 196 259 117 476 212 481 212 6 0 46 -10 90 -22 44 -12 110 -25
    146 -28 l65 -6 233 -1101 c128 -605 238 -1118 244 -1139 13 -46 58 -87 97 -87
    22 0 225 154 962 730 513 402 945 747 961 767 15 20 32 53 37 75 8 27 5 439
    -9 1390 -11 743 -18 1355 -15 1359 2 4 127 108 277 231 2582 2112 4007 3368
    4632 4083 1138 1302 1889 3025 2185 5010 68 458 120 1074 120 1418 l0 77 -242
    -1 c-134 -1 -292 -5 -353 -10z m-4005 -3489 c493 -61 899 -398 1048 -870 40
    -128 55 -230 54 -380 -1 -331 -125 -625 -366 -866 -245 -245 -533 -365 -876
    -365 -587 0 -1083 397 -1218 975 -21 94 -25 134 -25 266 0 170 13 250 64 404
    182 546 750 905 1319 836z"/>
    <path d="M1564 4469 c-189 -157 -386 -353 -508 -504 -103 -128 -268 -375 -351
    -524 -342 -615 -558 -1416 -626 -2326 -16 -215 -18 -780 -2 -796 17 -17 750
    -5 958 15 1337 132 2370 569 3024 1280 74 81 302 349 298 352 -1 0 -66 39
    -144 86 l-141 86 -84 -60 c-333 -239 -788 -439 -1267 -558 -441 -110 -866
    -160 -1356 -160 l-243 0 -7 127 c-7 146 7 502 30 720 66 634 222 1183 470
    1660 69 133 182 316 253 408 19 25 27 44 22 51 -5 5 -45 70 -89 142 l-79 132
    -158 -131z"/>
  </g>
</svg>
