<svg version="1.1" xmlns="http://www.w3.org/2000/svg" xmlns:xlink="http://www.w3.org/1999/xlink" x="0px" y="0px"
	 viewBox="0 0 35 35" style="enable-background:new 0 0 35 35;" xml:space="preserve">
<style type="text/css">
	.icon-trash-0{fill:none;stroke-miterlimit:10;}
</style>
  <g>
  	<g>
  		<path class="icon-trash-0" d="M17.5,9.2c0,0,5.6,0,5.8,0c0.9,0,1.5,0.2,1.9,0.5c0.5,0.5,0.4,1,0.3,1.7h-7.9H9.6c-0.1-0.6-0.2-1.2,0.3-1.7
  			c0.3-0.3,0.9-0.5,1.9-0.5C11.9,9.2,17.5,9.2,17.5,9.2z"/>
  	</g>
  	<g>
  		<path class="icon-trash-0" d="M19.7,8.5c0.1-0.6,0.2-1.2-0.3-1.7c-0.3-0.3-0.9-0.5-1.9-0.5c-0.9,0-1.5,0.2-1.9,0.5c-0.5,0.5-0.4,1-0.3,1.7"
  			/>
  	</g>
  	<path class="icon-trash-0" d="M10.2,12.7l1.2,12.6c0.2,1.3,1,2.3,2.3,2.3h7.4c1.3,0,2.1-1,2.3-2.3l1.3-12.6"/>
  	<line class="icon-trash-0" x1="14.6" y1="25.4" x2="13.7" y2="13.5"/>
  	<line class="icon-trash-0" x1="17.5" y1="25.4" x2="17.5" y2="13.5"/>
  	<line class="icon-trash-0" x1="20.4" y1="25.4" x2="21.3" y2="13.5"/>
  </g>
</svg>
