<svg version="1.1" xmlns="http://www.w3.org/2000/svg" xmlns:xlink="http://www.w3.org/1999/xlink" x="0px" y="0px"
	 viewBox="130 20 530 530" xml:space="preserve">
<style type="text/css">
	.tritonobjectstorage0{fill:#646867;}
</style>
<path class="tritonobjectstorage0" d="M315,158.4c8.8,0,17.2,3.4,23.4,9.6c13.1,13.1,12.8,34.6-0.7,48c-6.5,6.6-15.4,10.3-24.6,10.3
	c-18.1,0.1-32.9-14.6-33-32.7c0-0.2,0-0.4,0-0.6C280.4,173.9,295.9,158.5,315,158.4 M493.2,158.9c8.8,0,17.2,3.4,23.4,9.6
	c13.1,13.1,12.8,34.6-0.7,48c-6.5,6.6-15.4,10.3-24.6,10.3c-8.8,0-17.2-3.4-23.4-9.6c-13.1-13.1-12.8-34.6,0.7-48
	C475.1,162.6,484,158.9,493.2,158.9 M582.6,248.2c18.1-0.1,32.9,14.6,33,32.7c0,0.2,0,0.4,0,0.6c-0.3,19.1-15.8,34.5-34.9,34.6
	c-18.1,0.1-32.9-14.6-33-32.7c0-0.2,0-0.4,0-0.6C548,263.7,563.5,248.3,582.6,248.2 M225,248.4c18.1-0.1,32.9,14.6,33,32.7
	c0,0.2,0,0.4,0,0.6c-0.3,19.1-15.8,34.5-34.9,34.6c-18.1,0.1-32.9-14.5-33.1-32.6c0-0.2,0-0.5,0-0.7
	C190.3,263.9,205.8,248.5,225,248.4 M403.3,248.7c18.1-0.1,32.9,14.5,33,32.7c0,0.2,0,0.4,0,0.7c-0.3,19.1-15.8,34.5-34.9,34.6
	c-8.8,0-17.2-3.4-23.4-9.6c-13.1-13.1-12.8-34.6,0.7-48C385.2,252.4,394.1,248.7,403.3,248.7 M493.7,337.1
	c18.1-0.1,32.9,14.6,33,32.7c0,0.2,0,0.4,0,0.6c-0.3,19.1-15.8,34.5-34.9,34.6c-18.1,0.1-32.9-14.6-33-32.7c0-0.2,0-0.4,0-0.6
	C459,352.6,474.5,337.2,493.7,337.1 M314.3,337.8c18.1-0.1,32.9,14.5,33,32.7c0,0.2,0,0.4,0,0.7c-0.3,19.1-15.8,34.5-34.9,34.6
	c-8.7,0-17.1-3.4-23.3-9.6c-13.1-13.1-12.8-34.6,0.7-48C296.2,341.5,305,337.8,314.3,337.8 M315,139.2c-14.3,0-28.1,5.7-38.2,15.9
	c-20.9,20.9-21.2,54.6-0.7,75.2c9.8,9.8,23.1,15.3,37,15.2c14.3,0,28.1-5.7,38.2-15.9c21-20.9,21.2-54.6,0.7-75.2
	C342.1,144.7,328.8,139.2,315,139.2z M493.2,139.7c-14.3,0-28.1,5.7-38.2,15.9c-21,20.9-21.2,54.6-0.7,75.2
	c9.8,9.8,23.1,15.3,37,15.2c14.3,0,28.1-5.7,38.2-15.9c21-20.9,21.2-54.6,0.7-75.2C520.4,145.1,507.1,139.6,493.2,139.7L493.2,139.7
	z M582.6,229c-14.4,0-28.1,5.8-38.2,16c-21,21-21.2,54.6-0.7,75.2c9.8,9.8,23.1,15.3,37,15.2c14.3,0,28.1-5.7,38.2-15.9
	c21-21,21.2-54.6,0.7-75.2C609.8,234.5,596.5,229,582.6,229L582.6,229z M224.9,229.2c-14.3,0-28.1,5.7-38.2,15.9
	c-20.9,21-21.2,54.6-0.7,75.2c9.8,9.8,23.1,15.3,37,15.2c14.3,0,28.1-5.7,38.2-15.9c21-21,21.2-54.6,0.7-75.2
	C252.1,234.6,238.8,229.1,224.9,229.2L224.9,229.2z M403.4,229.5c-14.3,0-28.1,5.7-38.2,15.9c-21,20.9-21.2,54.6-0.7,75.2
	c9.8,9.8,23.1,15.3,37,15.2c14.3,0,28.1-5.7,38.2-15.8c21-21,21.2-54.6,0.7-75.2C430.6,235,417.2,229.5,403.4,229.5L403.4,229.5z
	 M493.7,317.9c-14.3,0-28.1,5.7-38.2,15.9c-21,21-21.2,54.6-0.7,75.2c9.8,9.8,23.1,15.3,37,15.2c14.3,0,28.1-5.7,38.2-15.9
	c21-21,21.2-54.6,0.7-75.2C520.9,323.4,507.5,317.9,493.7,317.9L493.7,317.9z M314.3,318.5c-14.4,0-28.1,5.8-38.2,16
	c-20.9,21-21.2,54.6-0.7,75.2c9.8,9.8,23.1,15.3,37,15.2c14.3,0,28.1-5.8,38.2-15.9c21-21,21.2-54.6,0.7-75.2
	C341.5,324,328.2,318.5,314.3,318.5L314.3,318.5z"/>
</svg>
