<svg version="1.0" xmlns="http://www.w3.org/2000/svg" viewBox="0 0 269 269">
<g transform="translate(0.000000,269.000000) scale(0.100000,-0.100000)" stroke="none">
<path d="M462 2640 c-12 -5 -39 -26 -60 -46 l-37 -36 -3 -1181 c-1 -650 0
-1195 3 -1212 3 -16 22 -48 43 -70 l37 -40 885 0 886 0 39 40 40 39 0 846 0
845 -366 5 -367 5 -36 38 c-20 21 -37 39 -38 40 -1 1 -4 166 -7 367 l-6 365
-495 2 c-283 1 -505 -2 -518 -7z m1494 -1069 c-9 -106 -34 -198 -76 -287 -66
-141 -104 -183 -388 -424 l-112 -95 0 -115 0 -116 -82 -62 c-44 -34 -83 -61
-85 -59 -2 2 -11 44 -22 93 -20 100 -28 107 -91 79 -34 -15 -40 -15 -67 -2
-34 18 -118 106 -134 140 -9 19 -7 31 5 55 21 40 20 69 -1 76 -10 3 -47 10
-83 17 -36 6 -70 15 -77 18 -8 4 10 34 54 90 l67 84 105 -7 106 -7 90 108
c139 166 245 279 305 324 116 88 304 154 449 158 l44 1 -7 -69z m-1116 -858
c0 -3 -11 -35 -25 -69 -14 -35 -28 -91 -32 -125 l-6 -62 67 6 c39 4 92 17 127
33 33 15 63 24 67 20 13 -14 -74 -83 -134 -106 -32 -12 -92 -25 -131 -28 l-73
-5 0 61 c0 87 32 180 81 236 37 42 59 57 59 39z"/>
<path d="M1528 1344 c-35 -18 -48 -43 -48 -90 0 -56 40 -94 97 -94 100 0 136
128 49 181 -37 23 -61 23 -98 3z"/>
<path d="M1677 2633 c-4 -3 -7 -142 -7 -309 0 -266 2 -303 16 -308 21 -8 508
-8 568 0 25 4 46 11 46 17 0 31 -80 123 -287 330 -253 253 -309 298 -336 270z"/>
</g>
</svg>
