<svg version="1.1" xmlns="http://www.w3.org/2000/svg" xmlns:xlink="http://www.w3.org/1999/xlink" x="0px" y="0px"
	 viewBox="0 0 24 24" xml:space="preserve">
<g>
	<path fill="none" fill="none" stroke-miterlimit="10" d="M15.9,15.5H8.1C7.5,15.5,7,15,7,14.4V4.1c0-1.6,1.3-2.9,2.9-2.9
		h4.3c1.6,0,2.9,1.3,2.9,2.9v10.3C17,15,16.5,15.5,15.9,15.5z"/>
	<path fill="none" fill="none" stroke-miterlimit="10" d="M15.8,15.5v6.3c0,0.6-0.5,1-1,1H9.2c-0.6,0-1-0.5-1-1v-6.3"/>
	<rect x="9.4" y="18.7" stroke="none" width="2.1" height="1.7"/>
	<rect x="12.6" y="18.7" stroke="none" width="2.1" height="1.7"/>
	<rect x="11" y="3.1" stroke="none" width="2.1" height="3.5"/>
</g>
</svg>
