<svg version="1.1" xmlns="http://www.w3.org/2000/svg" xmlns:xlink="http://www.w3.org/1999/xlink" x="0px" y="0px"
	 viewBox="0 2 40 40" xml:space="preserve">
<style type="text/css">
	.icon-model-0{fill:none;stroke-miterlimit:10;}
</style>
<g>
	<path class="icon-model-0" d="M39.2,6c-3.2,0-5.9,2.7-5.9,5.9v20.4c0,3.2-2.3,5.9-5.2,5.9h-16c-2.9,0-5.2-2.7-5.2-5.9V11.9
		C6.9,8.7,4.3,6,1,6"/>
	<path class="icon-model-0" d="M12.1,34.2h16c0.6,0,1.3-0.8,1.3-2V19.8c-5.5,0.1-7.1,5.7-13,5.9c-2.3,0.1-3.9-0.8-5.5-2h-0.1v8.6
		C10.8,33.5,11.5,34.2,12.1,34.2z"/>
</g>
</svg>
