<?xml version="1.0" encoding="utf-8"?>
<!-- Generator: Adobe Illustrator 19.2.0, SVG Export Plug-In . SVG Version: 6.00 Build 0)  -->
<svg version="1.1" id="Layer_1" xmlns="http://www.w3.org/2000/svg" xmlns:xlink="http://www.w3.org/1999/xlink" x="0px" y="0px"
	 viewBox="0 0 190 46" style="enable-background:new 0 0 190 46;" xml:space="preserve">
<style type="text/css">
	.st0{fill:#C1C1C1;}
</style>
<path class="st0" d="M81.1,38.4c-4.6-0.3-9.3-0.7-13.8-1.3c-0.8-0.1-1.6,0.5-1.7,1.3c-0.1,0.8,0.5,1.6,1.3,1.7c4.5,0.6,9.2,1,14,1.3
	c0,0,0.1,0,0.1,0c0.8,0,1.4-0.6,1.5-1.4C82.6,39.2,81.9,38.5,81.1,38.4z"/>
<path class="st0" d="M53.7,34.9c-4.7-1-9.2-2.1-13.4-3.4c-0.8-0.2-1.6,0.2-1.9,1s0.2,1.6,1,1.9c4.3,1.3,8.9,2.5,13.6,3.4
	c0.1,0,0.2,0,0.3,0c0.7,0,1.3-0.5,1.5-1.2C55.1,35.9,54.5,35.1,53.7,34.9z"/>
<path class="st0" d="M27.5,26.8c-4.6-2.1-8.5-4.3-11.8-6.7c-0.7-0.5-1.6-0.3-2.1,0.3c-0.5,0.7-0.3,1.6,0.3,2.1
	c3.4,2.5,7.6,4.9,12.3,7c0.2,0.1,0.4,0.1,0.6,0.1c0.6,0,1.1-0.3,1.4-0.9C28.6,28,28.3,27.1,27.5,26.8z"/>
<path class="st0" d="M136.1,34.8c-4.4,0.9-8.9,1.7-13.6,2.3c-0.8,0.1-1.4,0.9-1.3,1.7c0.1,0.8,0.7,1.3,1.5,1.3c0.1,0,0.1,0,0.2,0
	c4.7-0.6,9.4-1.4,13.8-2.3c0.8-0.2,1.3-1,1.2-1.8S136.9,34.7,136.1,34.8z"/>
<path class="st0" d="M162.3,26.7c-3.9,1.8-8.2,3.4-12.9,4.8c-0.8,0.2-1.2,1.1-1,1.9c0.2,0.6,0.8,1.1,1.4,1.1c0.1,0,0.3,0,0.4-0.1
	c4.8-1.5,9.2-3.1,13.2-4.9c0.8-0.3,1.1-1.2,0.7-2C163.9,26.7,163,26.3,162.3,26.7z"/>
<path class="st0" d="M108.7,38.4c-4.5,0.3-9.2,0.4-13.8,0.4c-0.8,0-1.5,0.7-1.5,1.5s0.7,1.5,1.5,1.5c0,0,0,0,0,0
	c4.7,0,9.4-0.1,14-0.4c0.8-0.1,1.5-0.8,1.4-1.6C110.3,39,109.5,38.4,108.7,38.4z"/>
<path class="st0" d="M5.3,3.8c0-0.8-0.7-1.5-1.5-1.5S2.3,3,2.3,3.8c0,2.7,0.7,5.3,1.9,7.9c0.3,0.5,0.8,0.8,1.3,0.8
	c0.2,0,0.5-0.1,0.7-0.2c0.7-0.4,1-1.3,0.7-2C5.8,8.2,5.3,6,5.3,3.8z"/>
<path class="st0" d="M187,22.4l-1.3-18.5l-15.4,10.4l6.7,3.3c-0.9,0.8-1.9,1.7-3,2.5c-0.7,0.5-0.8,1.4-0.3,2.1
	c0.3,0.4,0.7,0.6,1.2,0.6c0.3,0,0.6-0.1,0.9-0.3c1.5-1.1,2.9-2.3,4.1-3.5L187,22.4z"/>
</svg>
